<svg width="14" height="14" viewBox="0 0 14 14" fill="none" xmlns="http://www.w3.org/2000/svg">
<g id="alert-triangle">
<path id="Vector" d="M6.99998 5.24999V6.41666M6.99998 8.74999V8.75582M2.91661 11.0833H11.0833C11.2736 11.082 11.4608 11.0341 11.6283 10.9438C11.7959 10.8536 11.9389 10.7237 12.0447 10.5655C12.1506 10.4073 12.2161 10.2256 12.2356 10.0362C12.2551 9.84687 12.228 9.65562 12.1566 9.47917L8.01495 2.33333C7.91406 2.15098 7.76616 1.99898 7.58664 1.89314C7.40711 1.7873 7.20252 1.73148 6.99411 1.73148C6.78571 1.73148 6.58112 1.7873 6.40159 1.89314C6.22207 1.99898 6.07417 2.15098 5.97328 2.33333L1.83161 9.47917C1.76158 9.65158 1.73381 9.83826 1.75062 10.0236C1.76743 10.2089 1.82833 10.3876 1.92824 10.5446C2.02816 10.7016 2.16418 10.8324 2.32496 10.9261C2.48573 11.0198 2.6666 11.0737 2.85245 11.0833" stroke="#E67700" stroke-linecap="round" stroke-linejoin="round"/>
</g>
</svg>
