<svg width="26" height="26" viewBox="0 0 26 26" fill="none" xmlns="http://www.w3.org/2000/svg">
<g id="building-store-money-off">
<path id="Vector" d="M3.25 22.75H13M3.25 7.58333V8.66667C3.25 9.52862 3.59241 10.3553 4.2019 10.9648C4.8114 11.5743 5.63805 11.9167 6.5 11.9167C7.36195 11.9167 8.1886 11.5743 8.7981 10.9648C9.40759 10.3553 9.75 9.52862 9.75 8.66667M3.25 7.58333H22.75M3.25 7.58333L5.41667 3.25H20.5833L22.75 7.58333M9.75 8.66667V7.58333M9.75 8.66667C9.75 9.52862 10.0924 10.3553 10.7019 10.9648C11.3114 11.5743 12.138 11.9167 13 11.9167C13.862 11.9167 14.6886 11.5743 15.2981 10.9648C15.9076 10.3553 16.25 9.52862 16.25 8.66667M16.25 8.66667V7.58333M16.25 8.66667C16.25 9.52862 16.5924 10.3553 17.2019 10.9648C17.8114 11.5743 18.638 11.9167 19.5 11.9167C20.362 11.9167 21.1886 11.5743 21.7981 10.9648C22.4076 10.3553 22.75 9.52862 22.75 8.66667V7.58333M5.41667 22.75V11.7541M9.75 22.75V18.4167C9.75 17.842 9.97827 17.2909 10.3846 16.8846C10.7909 16.4783 11.342 16.25 11.9167 16.25H13M20.5166 17.8769C20.4348 17.7351 20.316 17.6182 20.1729 17.5387C20.0298 17.4591 19.8677 17.42 19.7041 17.4256H19.2527L19.2528 16.5228M17.9798 17.9541C17.9172 18.0916 17.89 18.2427 17.9009 18.3934C17.9118 18.5441 17.9604 18.6897 18.0421 18.8168C18.1239 18.9439 18.2362 19.0484 18.3689 19.1208C18.5015 19.1932 18.6502 19.2311 18.8013 19.2311H19.2527M20.5274 20.5049C20.456 20.6634 20.3403 20.7979 20.1942 20.8923C20.0481 20.9866 19.878 21.0367 19.7041 21.0367H18.8013C18.6377 21.0422 18.4756 21.0031 18.3325 20.9236C18.1894 20.8441 18.0706 20.7271 17.9888 20.5853M22.8829 21.0571C23.2674 20.2937 23.4015 19.4285 23.2658 18.5846C23.1302 17.7406 22.7318 16.961 22.1274 16.3565C21.523 15.7521 20.7434 15.3538 19.8994 15.2181C19.0555 15.0825 18.1903 15.2165 17.4269 15.6011M16.3806 16.3581C15.9982 16.7341 15.6941 17.1821 15.4858 17.6763C15.2774 18.1705 15.169 18.701 15.1667 19.2372C15.1644 19.7735 15.2683 20.3049 15.4724 20.8008C15.6766 21.2968 15.9769 21.7474 16.356 22.1266C16.7351 22.5059 17.1856 22.8064 17.6814 23.0107C18.1773 23.215 18.7086 23.3191 19.2449 23.317C19.7812 23.315 20.3117 23.2067 20.806 22.9986C21.3002 22.7904 21.7483 22.4865 22.1245 22.1043M19.2528 21.0367V21.9395M15.1903 15.1687L23.3153 23.2937" stroke="#1864AB" stroke-linecap="round" stroke-linejoin="round"/>
</g>
</svg>
