<svg width="26" height="26" viewBox="0 0 26 26" fill="none" xmlns="http://www.w3.org/2000/svg">
<g id="building-store-read">
<path id="Vector" d="M3.25 22.75H13M3.25 7.58333V8.66667C3.25 9.52862 3.59241 10.3553 4.2019 10.9648C4.8114 11.5743 5.63805 11.9167 6.5 11.9167C7.36195 11.9167 8.1886 11.5743 8.7981 10.9648C9.40759 10.3553 9.75 9.52862 9.75 8.66667M3.25 7.58333H22.75M3.25 7.58333L5.41667 3.25H20.5833L22.75 7.58333M9.75 8.66667V7.58333M9.75 8.66667C9.75 9.52862 10.0924 10.3553 10.7019 10.9648C11.3114 11.5743 12.138 11.9167 13 11.9167C13.862 11.9167 14.6886 11.5743 15.2981 10.9648C15.9076 10.3553 16.25 9.52862 16.25 8.66667M16.25 8.66667V7.58333M16.25 8.66667C16.25 9.52862 16.5924 10.3553 17.2019 10.9648C17.8114 11.5743 18.638 11.9167 19.5 11.9167C20.362 11.9167 21.1886 11.5743 21.7981 10.9648C22.4076 10.3553 22.75 9.52862 22.75 8.66667V7.58333M5.41667 22.75V11.7541M9.75 22.75V18.4167C9.75 17.842 9.97827 17.2909 10.3846 16.8846C10.7909 16.4783 11.342 16.25 11.9167 16.25H13M20.8832 17.9468C20.676 17.6712 20.412 17.4433 20.1091 17.2786C19.8062 17.1139 19.4715 17.0161 19.1276 16.992C18.7836 16.9678 18.4385 17.0178 18.1155 17.1385C17.7926 17.2593 17.4993 17.4479 17.2556 17.6918C17.0118 17.9357 16.8233 18.2291 16.7028 18.5521C16.5822 18.8752 16.5324 19.2203 16.5568 19.5643C16.5812 19.9082 16.6791 20.2429 16.844 20.5457C17.0089 20.8485 17.2369 21.1124 17.5126 21.3195M23.0441 17.9453C22.7993 17.2555 22.3838 16.6389 21.8364 16.153C21.2889 15.6671 20.6273 15.3278 19.9133 15.1667C19.1993 15.0056 18.4561 15.0279 17.7531 15.2316C17.0501 15.4353 16.41 15.8138 15.8928 16.3316C15.3755 16.8495 14.9978 17.49 14.7949 18.1933C14.592 18.8966 14.5705 19.6398 14.7324 20.3537C14.8943 21.0675 15.2343 21.7287 15.7208 22.2757C16.2073 22.8226 16.8244 23.2374 17.5145 23.4814M23.2917 19.3926H19.4389C19.4389 19.2973 19.4107 19.2042 19.3578 19.125C19.3048 19.0458 19.2296 18.9841 19.1416 18.9476C19.0536 18.9112 18.9568 18.9016 18.8634 18.9202C18.77 18.9388 18.6841 18.9847 18.6168 19.052C18.5494 19.1194 18.5036 19.2052 18.485 19.2986C18.4664 19.392 18.4759 19.4889 18.5124 19.5769C18.5488 19.6649 18.6106 19.7401 18.6898 19.793C18.769 19.8459 18.8621 19.8742 18.9573 19.8742V23.727C20.1069 23.727 21.2093 23.2704 22.0222 22.4575C22.835 21.6446 23.2917 20.5421 23.2917 19.3926Z" stroke="#E67700" stroke-linecap="round" stroke-linejoin="round"/>
</g>
</svg>
