<svg width="26" height="26" viewBox="0 0 26 26" fill="none" xmlns="http://www.w3.org/2000/svg">
<g id="locations-difference">
<path id="Vector" d="M15.1666 5.41667C14.592 5.41667 14.0409 5.64494 13.6346 6.05127C13.2283 6.4576 13 7.0087 13 7.58333V18.4167C13 18.9913 12.7717 19.5424 12.3654 19.9487C11.959 20.3551 11.4079 20.5833 10.8333 20.5833M8.50178 17.6351C8.66575 18.045 8.70862 18.4961 8.62497 18.9313C8.54131 19.3665 8.33489 19.7663 8.03181 20.08L6.49998 21.6667L4.96815 20.08C4.66507 19.7663 4.45865 19.3665 4.37499 18.9313C4.29134 18.4961 4.33421 18.045 4.49818 17.6351C4.66215 17.2251 4.93986 16.8747 5.29618 16.6281C5.6525 16.3816 6.07143 16.25 6.49998 16.25C6.92853 16.25 7.34746 16.3816 7.70378 16.6281M8.50178 17.6351C8.33781 17.2251 8.0601 16.8747 7.70378 16.6281M8.50178 17.6351C8.50178 17.6351 8.0601 16.8747 7.70378 16.6281M6.49998 18.4939V18.4995M21.5018 4.63506C21.6658 5.04503 21.7086 5.49614 21.625 5.93134C21.5413 6.36654 21.3349 6.76628 21.0318 7.08L19.5 8.66667L17.9681 7.08C17.6651 6.76628 17.4586 6.36654 17.375 5.93134C17.2913 5.49614 17.3342 5.04503 17.4982 4.63506C17.6621 4.22509 17.9399 3.87467 18.2962 3.62813C18.6525 3.38159 19.0714 3.25 19.5 3.25C19.9285 3.25 20.3475 3.38159 20.7038 3.62813M21.5018 4.63506C21.3378 4.22509 21.0601 3.87467 20.7038 3.62813M21.5018 4.63506C21.5018 4.63506 21.0601 3.87467 20.7038 3.62813M19.5 5.4939V5.49951" stroke="#E67700" stroke-linecap="round" stroke-linejoin="round"/>
</g>
</svg>
