<svg width="26" height="26" viewBox="0 0 26 26" fill="none" xmlns="http://www.w3.org/2000/svg">
<g id="building-warehouse-fridge">
<path id="Vector" d="M3.25 22.75V8.66667L13 4.33334L22.75 8.66667V22.75M17.875 11.1944C17.875 10.8114 17.7283 10.444 17.467 10.1731C17.2058 9.90218 16.8516 9.75 16.4821 9.75H9.51786C9.14845 9.75 8.79417 9.90218 8.53296 10.1731C8.27175 10.444 8.125 10.8114 8.125 11.1944V19.1389M17.875 11.1944V21.3056M17.875 11.1944V19.1389M17.875 21.3056C17.875 21.6886 17.7283 22.056 17.467 22.3269C17.2058 22.5978 16.8516 22.75 16.4821 22.75H9.51786C9.14845 22.75 8.79417 22.5978 8.53296 22.3269C8.27175 22.056 8.125 21.6886 8.125 21.3056V19.1389M17.875 21.3056V19.1389M8.125 19.1389H17.875M8.125 13.3611L9.51786 13.7222V16.9722L8.125 17.3333M15.7083 21.125H13H10.2917" stroke="#1864AB" stroke-linecap="round" stroke-linejoin="round"/>
</g>
</svg>
