<svg width="26" height="26" viewBox="0 0 26 26" fill="none" xmlns="http://www.w3.org/2000/svg">
<g id="truck-loading">
<path id="Vector" d="M2.16669 3.25H3.25002C3.82466 3.25 4.37576 3.47827 4.78209 3.8846C5.18841 4.29093 5.41669 4.84203 5.41669 5.41667V16.25C5.41669 16.8246 5.64496 17.3757 6.05129 17.7821C6.45762 18.1884 7.00872 18.4167 7.58335 18.4167H23.8334M13 6.5H17.3334C19.1283 6.5 20.5834 7.95507 20.5834 9.75V11.9167C20.5834 13.7116 19.1283 15.1667 17.3334 15.1667H13C11.2051 15.1667 9.75002 13.7116 9.75002 11.9167V9.75C9.75002 7.95507 11.2051 6.5 13 6.5ZM11.9167 20.5833C11.9167 21.78 10.9466 22.75 9.75002 22.75C8.5534 22.75 7.58335 21.78 7.58335 20.5833C7.58335 19.3867 8.5534 18.4167 9.75002 18.4167C10.9466 18.4167 11.9167 19.3867 11.9167 20.5833ZM21.6667 20.5833C21.6667 21.78 20.6966 22.75 19.5 22.75C18.3034 22.75 17.3334 21.78 17.3334 20.5833C17.3334 19.3867 18.3034 18.4167 19.5 18.4167C20.6966 18.4167 21.6667 19.3867 21.6667 20.5833Z" stroke="#E67700" stroke-linecap="round" stroke-linejoin="round"/>
</g>
</svg>
