<svg width="26" height="26" viewBox="0 0 26 26" fill="none" xmlns="http://www.w3.org/2000/svg">
<g id="reload">
<path id="Vector" d="M22.0899 14.1928C22.1258 13.919 21.933 13.6679 21.6592 13.632C21.3854 13.5961 21.1343 13.7889 21.0984 14.0627L22.0899 14.1928ZM10.8421 4.6074L10.7176 4.12314L10.7175 4.12317L10.8421 4.6074ZM20.588 9.93504C20.6902 10.1916 20.981 10.3167 21.2375 10.2145C21.4941 10.1123 21.6192 9.82147 21.517 9.56494L20.588 9.93504ZM22.1667 4.33333C22.1667 4.05719 21.9428 3.83333 21.6667 3.83333C21.3905 3.83333 21.1667 4.05719 21.1667 4.33333H22.1667ZM21.6667 9.75V10.25C21.9428 10.25 22.1667 10.0261 22.1667 9.75H21.6667ZM16.25 9.25C15.9738 9.25 15.75 9.47386 15.75 9.75C15.75 10.0261 15.9738 10.25 16.25 10.25V9.25ZM21.0984 14.0627C20.9056 15.5327 20.3163 16.9224 19.3938 18.0829L20.1765 18.7052C21.2121 17.4026 21.8735 15.8427 22.0899 14.1928L21.0984 14.0627ZM19.3938 18.0829C18.4712 19.2434 17.2501 20.1309 15.8615 20.6502L16.2117 21.5868C17.7704 21.004 19.141 20.0078 20.1765 18.7052L19.3938 18.0829ZM15.8615 20.6502C14.4728 21.1695 12.9691 21.3009 11.5114 21.0305L11.329 22.0137C12.9651 22.3173 14.6531 22.1697 16.2117 21.5868L15.8615 20.6502ZM11.5114 21.0305C10.0537 20.7601 8.69716 20.098 7.5872 19.1151L6.92428 19.8638C8.17015 20.967 9.69282 21.7102 11.329 22.0137L11.5114 21.0305ZM7.5872 19.1151C6.47723 18.1323 5.65574 16.8659 5.21082 15.4517L4.25691 15.7518C4.75632 17.3392 5.6784 18.7607 6.92428 19.8638L7.5872 19.1151ZM5.21082 15.4517C4.7659 14.0375 4.71433 12.5289 5.06166 11.0876L4.08949 10.8533C3.69964 12.4711 3.75751 14.1645 4.25691 15.7518L5.21082 15.4517ZM5.06166 11.0876C5.40898 9.64631 6.14209 8.32676 7.18236 7.27046L6.46987 6.56878C5.30222 7.75443 4.47934 9.23555 4.08949 10.8533L5.06166 11.0876ZM7.18236 7.27046C8.22263 6.21416 9.53081 5.46096 10.9666 5.09164L10.7175 4.12317C9.10589 4.53771 7.63751 5.38314 6.46987 6.56878L7.18236 7.27046ZM10.9665 5.09167C14.951 4.06769 19.0685 6.12109 20.588 9.93504L21.517 9.56494C19.8081 5.27555 15.1809 2.97612 10.7176 4.12314L10.9665 5.09167ZM21.1667 4.33333V9.75H22.1667V4.33333H21.1667ZM21.6667 9.25H16.25V10.25H21.6667V9.25Z" fill="#1864AB"/>
</g>
</svg>
