<svg width="16" height="16" viewBox="0 0 16 16" fill="none" xmlns="http://www.w3.org/2000/svg">
<g id="at">
<path id="Vector" d="M10.6667 8C10.6667 9.47276 9.47276 10.6667 8 10.6667C6.52724 10.6667 5.33333 9.47276 5.33333 8C5.33333 6.52724 6.52724 5.33334 8 5.33334C9.47276 5.33334 10.6667 6.52724 10.6667 8ZM10.6667 8L10.6667 8.99998C10.6667 9.44201 10.8423 9.86593 11.1548 10.1785C11.4674 10.4911 11.8913 10.6666 12.3333 10.6666C12.7754 10.6666 13.1993 10.4911 13.5118 10.1785C13.8244 9.86593 14 9.44201 14 8.99998V7.99998C14.0017 6.71072 13.588 5.45521 12.8203 4.41944C12.0525 3.38368 10.9716 2.62275 9.73759 2.24938C8.50357 1.87601 7.18211 1.91006 5.96896 2.34649C4.7558 2.78292 3.7155 3.5985 3.00214 4.67243C2.28878 5.74636 1.94031 7.02151 2.00837 8.30898C2.07642 9.59645 2.55737 10.8278 3.37997 11.8205C4.20257 12.8132 5.32306 13.5146 6.57546 13.8207C7.82786 14.1268 9.14555 14.0214 10.3333 13.52" stroke="#CED4DA" stroke-linecap="round" stroke-linejoin="round"/>
</g>
</svg>
