<svg width="26" height="26" viewBox="0 0 26 26" fill="none" xmlns="http://www.w3.org/2000/svg">
<g id="building-store">
<path id="Vector" d="M3.25 22.75H22.75M3.25 7.58333V8.66667C3.25 9.52862 3.59241 10.3553 4.2019 10.9648C4.8114 11.5743 5.63805 11.9167 6.5 11.9167C7.36195 11.9167 8.1886 11.5743 8.7981 10.9648C9.40759 10.3553 9.75 9.52862 9.75 8.66667M3.25 7.58333H22.75M3.25 7.58333L5.41667 3.25H20.5833L22.75 7.58333M9.75 8.66667V7.58333M9.75 8.66667C9.75 9.52862 10.0924 10.3553 10.7019 10.9648C11.3114 11.5743 12.138 11.9167 13 11.9167C13.862 11.9167 14.6886 11.5743 15.2981 10.9648C15.9076 10.3553 16.25 9.52862 16.25 8.66667M16.25 8.66667V7.58333M16.25 8.66667C16.25 9.52862 16.5924 10.3553 17.2019 10.9648C17.8114 11.5743 18.638 11.9167 19.5 11.9167C20.362 11.9167 21.1886 11.5743 21.7981 10.9648C22.4076 10.3553 22.75 9.52862 22.75 8.66667V7.58333M5.41667 22.75V11.7541M20.5833 22.75V11.7541M9.75 22.75V18.4167C9.75 17.842 9.97827 17.2909 10.3846 16.8846C10.7909 16.4783 11.342 16.25 11.9167 16.25H14.0833C14.658 16.25 15.2091 16.4783 15.6154 16.8846C16.0217 17.2909 16.25 17.842 16.25 18.4167V22.75" stroke="#E67700" stroke-linecap="round" stroke-linejoin="round"/>
</g>
</svg>
