<svg width="26" height="26" viewBox="0 0 26 26" fill="none" xmlns="http://www.w3.org/2000/svg">
<g id="check">
<path id="Vector" d="M5.77055 12.6465C5.57528 12.4512 5.2587 12.4512 5.06344 12.6465C4.86818 12.8417 4.86818 13.1583 5.06344 13.3536L5.77055 12.6465ZM10.8337 18.4167L10.4801 18.7703C10.6754 18.9655 10.992 18.9655 11.1872 18.7703L10.8337 18.4167ZM22.0205 7.93693C22.2158 7.74167 22.2158 7.42508 22.0205 7.22982C21.8253 7.03456 21.5087 7.03456 21.3134 7.22982L22.0205 7.93693ZM5.06344 13.3536L10.4801 18.7703L11.1872 18.0632L5.77055 12.6465L5.06344 13.3536ZM11.1872 18.7703L22.0205 7.93693L21.3134 7.22982L10.4801 18.0632L11.1872 18.7703Z" fill="#2393F4"/>
</g>
</svg>
