<svg width="24" height="24" viewBox="0 0 24 24" fill="none" xmlns="http://www.w3.org/2000/svg">
<g id="Devices">
<rect x="0.25" y="0.25" width="23.5" height="23.5" rx="1.75" fill="#FEF5C7"/>
<rect x="0.25" y="0.25" width="23.5" height="23.5" rx="1.75" stroke="#451C03" stroke-width="0.5"/>
<path id="Vector" d="M7.97143 19L7 21M17 19L17.9714 21M4 3.12643C5.45714 2.95976 8.56571 2.82643 9.34286 3.62643V5.62646M21 3.1266C19.5429 2.95971 16.4343 2.8262 15.6571 3.62727V5.63M9.34287 6C8.20954 6.16049 5.94287 7.05926 5.94287 9.37037V15.1481C6.10478 16.4321 7.10859 19 9.82859 19H16.6286C17.6 18.8395 19.5429 17.8444 19.5429 15.1481V9.37037C19.5429 8.24691 18.8629 6 16.1429 6H9.34287Z" stroke="#451C03" stroke-width="1.5" stroke-linecap="round" stroke-linejoin="round"/>
</g>
</svg>
