<svg width="26" height="26" viewBox="0 0 26 26" fill="none" xmlns="http://www.w3.org/2000/svg">
<g id="compressor">
<path id="Vector" d="M7.04167 20.5833H18.9583M7.04167 20.5833C5.30833 20.5833 4.875 18.4166 4.875 17.3333C4.875 15.8888 4.875 12.35 4.875 9.74995C4.875 7.14995 6.31944 6.49995 7.04167 6.49995C7.97272 6.49995 9.10062 6.49995 10.2917 6.49995M7.04167 20.5833L4.875 23.8333M18.9583 20.5833C19.6806 20.5833 21.125 19.9333 21.125 17.3333C21.125 14.7333 21.125 11.1944 21.125 9.74995C21.125 8.66662 20.6917 6.49995 18.9583 6.49995C18.3536 6.49995 17.1598 6.49995 15.7083 6.49995M18.9583 20.5833L21.125 23.8333M10.2917 6.49995V3.79162C9.75 3.0694 7.58333 1.94995 3.25 3.24995M10.2917 6.49995C12.1084 6.49995 14.0721 6.49995 15.7083 6.49995M15.7083 6.49995V3.79162C16.4306 3.06939 18.85 1.94993 22.75 3.24995" stroke="#FA5252" stroke-linecap="round"/>
</g>
</svg>
