<svg width="58" height="14" viewBox="0 0 58 14" fill="none" xmlns="http://www.w3.org/2000/svg">
<g id="Consola Solkos">
<path id="Vector" d="M53.8071 14C52.9528 14 52.2069 13.8661 51.5694 13.5983C50.9446 13.3178 50.4473 12.9353 50.0776 12.4508C49.7205 11.9535 49.5102 11.3861 49.4464 10.7486H51.7415C51.8052 11.0164 51.92 11.265 52.0857 11.4945C52.2515 11.7113 52.4746 11.8834 52.7551 12.0109C53.0484 12.1384 53.3927 12.2022 53.7879 12.2022C54.1704 12.2022 54.4828 12.1512 54.7251 12.0492C54.9674 11.9344 55.1459 11.7878 55.2606 11.6093C55.3754 11.4308 55.4327 11.2395 55.4327 11.0355C55.4327 10.7295 55.3499 10.4936 55.1841 10.3278C55.0184 10.1621 54.7761 10.0346 54.4573 9.94533C54.1513 9.84332 53.7816 9.74769 53.3481 9.65844C52.889 9.56919 52.4428 9.46081 52.0092 9.3333C51.5885 9.19305 51.206 9.02092 50.8617 8.81691C50.5302 8.6129 50.2624 8.35152 50.0584 8.03276C49.8672 7.714 49.7715 7.32511 49.7715 6.86609C49.7715 6.30507 49.9182 5.80143 50.2114 5.35516C50.5175 4.9089 50.951 4.55826 51.512 4.30325C52.0858 4.03549 52.7679 3.90161 53.5584 3.90161C54.6805 3.90161 55.573 4.163 56.236 4.68576C56.9118 5.19578 57.3071 5.91618 57.4218 6.84697H55.2415C55.1777 6.48995 54.9992 6.21582 54.706 6.02456C54.4127 5.82055 54.0238 5.71855 53.5393 5.71855C53.042 5.71855 52.6595 5.81418 52.3918 6.00544C52.1368 6.18394 52.0092 6.4262 52.0092 6.73221C52.0092 6.93622 52.0858 7.11473 52.2388 7.26773C52.4045 7.42074 52.6404 7.55462 52.9464 7.66937C53.2524 7.77137 53.6286 7.87338 54.0748 7.97538C54.7888 8.11564 55.42 8.28139 55.9683 8.47265C56.5165 8.66391 56.95 8.94442 57.2688 9.31418C57.5876 9.68394 57.7469 10.2067 57.7469 10.8825C57.7597 11.4945 57.6003 12.0364 57.2688 12.5082C56.95 12.9799 56.4974 13.3497 55.9109 13.6175C55.3244 13.8725 54.6231 14 53.8071 14Z" fill="#000005"/>
<path id="Vector_2" d="M42.8773 14C41.9592 14 41.1305 13.7896 40.391 13.3688C39.6642 12.9353 39.0904 12.3424 38.6696 11.5901C38.2616 10.8251 38.0576 9.9517 38.0576 8.96992C38.0576 7.96263 38.268 7.08285 38.6888 6.33057C39.1095 5.56555 39.6833 4.97265 40.4101 4.55188C41.1496 4.11837 41.9784 3.90161 42.8964 3.90161C43.8144 3.90161 44.6368 4.11837 45.3636 4.55188C46.1032 4.97265 46.6769 5.55917 47.0849 6.31145C47.5057 7.06372 47.7161 7.94351 47.7161 8.95079C47.7161 9.95808 47.5057 10.8379 47.0849 11.5901C46.6642 12.3424 46.084 12.9353 45.3445 13.3688C44.6177 13.7896 43.7953 14 42.8773 14ZM42.8773 12.03C43.3363 12.03 43.7507 11.9153 44.1205 11.6858C44.503 11.4563 44.809 11.112 45.0385 10.653C45.268 10.194 45.3828 9.62657 45.3828 8.95079C45.3828 8.27502 45.268 7.714 45.0385 7.26773C44.8217 6.80871 44.5221 6.46445 44.1396 6.23494C43.7698 6.00544 43.3554 5.89068 42.8964 5.89068C42.4501 5.89068 42.0358 6.00544 41.6532 6.23494C41.2707 6.46445 40.9647 6.80871 40.7352 7.26773C40.5057 7.714 40.391 8.27502 40.391 8.95079C40.391 9.62657 40.5057 10.194 40.7352 10.653C40.9647 11.112 41.2644 11.4563 41.6341 11.6858C42.0166 11.9153 42.431 12.03 42.8773 12.03Z" fill="#000005"/>
<path id="Vector_3" d="M34.737 13.7705L30.4719 8.4918L34.2971 4.13115H37.032L32.2698 9.42896V7.65027L37.6058 13.7705H34.737ZM28.5211 13.7705V0H30.8162V13.7705H28.5211Z" fill="#000005"/>
<path id="Vector_4" d="M23.6649 13.7705V0H25.96V13.7705H23.6649Z" fill="#000005"/>
<path id="Vector_5" d="M16.5796 14C15.6615 14 14.8327 13.7896 14.0932 13.3688C13.3664 12.9353 12.7927 12.3424 12.3719 11.5901C11.9639 10.8251 11.7599 9.9517 11.7599 8.96992C11.7599 7.96263 11.9703 7.08285 12.391 6.33057C12.8118 5.56555 13.3856 4.97265 14.1123 4.55188C14.8519 4.11837 15.6806 3.90161 16.5987 3.90161C17.5167 3.90161 18.3391 4.11837 19.0659 4.55188C19.8054 4.97265 20.3792 5.55917 20.7872 6.31145C21.208 7.06372 21.4184 7.94351 21.4184 8.95079C21.4184 9.95808 21.208 10.8379 20.7872 11.5901C20.3664 12.3424 19.7863 12.9353 19.0468 13.3688C18.32 13.7896 17.4976 14 16.5796 14ZM16.5796 12.03C17.0386 12.03 17.453 11.9153 17.8227 11.6858C18.2052 11.4563 18.5113 11.112 18.7408 10.653C18.9703 10.194 19.085 9.62657 19.085 8.95079C19.085 8.27502 18.9703 7.714 18.7408 7.26773C18.524 6.80871 18.2244 6.46445 17.8419 6.23494C17.4721 6.00544 17.0577 5.89068 16.5987 5.89068C16.1524 5.89068 15.738 6.00544 15.3555 6.23494C14.973 6.46445 14.667 6.80871 14.4375 7.26773C14.208 7.714 14.0932 8.27502 14.0932 8.95079C14.0932 9.62657 14.208 10.194 14.4375 10.653C14.667 11.112 14.9666 11.4563 15.3364 11.6858C15.7189 11.9153 16.1333 12.03 16.5796 12.03Z" fill="#000005"/>
<path id="Vector_6" d="M5.24412 14.0001C4.27509 14.0001 3.41443 13.8279 2.66215 13.4837C1.90987 13.1394 1.32336 12.6485 0.902593 12.011C0.481828 11.3735 0.26507 10.6148 0.252319 9.73504H2.68128C2.68128 10.1813 2.78328 10.5829 2.98729 10.94C3.20405 11.2842 3.49731 11.5584 3.86707 11.7624C4.24958 11.9664 4.7086 12.0684 5.24412 12.0684C5.70314 12.0684 6.0984 11.9982 6.42991 11.858C6.77417 11.705 7.03556 11.4946 7.21406 11.2268C7.40532 10.9463 7.50095 10.6212 7.50095 10.2514C7.50095 9.83067 7.39895 9.48641 7.19494 9.21865C7.00368 8.93814 6.73592 8.70225 6.39166 8.511C6.0474 8.31974 5.65214 8.15398 5.20587 8.01373C4.7596 7.86072 4.28783 7.70134 3.79057 7.53559C2.73228 7.17858 1.93538 6.72593 1.39986 6.17766C0.864338 5.61664 0.596582 4.87074 0.596582 3.93996C0.596582 3.16218 0.781458 2.49278 1.15122 1.93176C1.52098 1.37074 2.03738 0.937228 2.7004 0.631218C3.37618 0.312457 4.15396 0.153076 5.03374 0.153076C5.92627 0.153076 6.70405 0.312457 7.36707 0.631218C8.04285 0.949979 8.57199 1.39624 8.9545 1.97001C9.34976 2.53104 9.55377 3.20681 9.56652 3.99734H7.11844C7.10569 3.66583 7.01644 3.35982 6.85068 3.0793C6.68492 2.78604 6.44266 2.55016 6.1239 2.37165C5.81789 2.1804 5.44175 2.08477 4.99549 2.08477C4.61297 2.07202 4.26871 2.13577 3.9627 2.27603C3.66944 2.40353 3.43356 2.59479 3.25505 2.8498C3.08929 3.09205 3.00641 3.39807 3.00641 3.76783C3.00641 4.12484 3.08291 4.42448 3.23592 4.66674C3.40168 4.89624 3.63756 5.09388 3.94358 5.25963C4.24959 5.41264 4.60659 5.55927 5.01461 5.69952C5.42262 5.83978 5.86889 5.99278 6.35341 6.15854C7.01643 6.3753 7.61571 6.64306 8.15123 6.96182C8.6995 7.26783 9.13301 7.66947 9.45177 8.16673C9.77053 8.664 9.92991 9.3079 9.92991 10.0984C9.92991 10.787 9.7514 11.4309 9.39439 12.0301C9.03738 12.6166 8.51461 13.0948 7.82609 13.4645C7.13756 13.8216 6.27691 14.0001 5.24412 14.0001Z" fill="#000005"/>
</g>
</svg>
