<svg width="26" height="26" viewBox="0 0 26 26" fill="none" xmlns="http://www.w3.org/2000/svg">
<g id="marquee-2">
<path id="Vector" d="M3.83334 6.5C3.83334 6.77614 4.0572 7 4.33334 7C4.60949 7 4.83334 6.77614 4.83334 6.5H3.83334ZM5.41668 4.33334V4.83334V4.33334ZM6.50001 4.83334C6.77615 4.83334 7.00001 4.60948 7.00001 4.33334C7.00001 4.05719 6.77615 3.83334 6.50001 3.83334V4.83334ZM11.9167 3.83334C11.6405 3.83334 11.4167 4.05719 11.4167 4.33334C11.4167 4.60948 11.6405 4.83334 11.9167 4.83334V3.83334ZM14.0833 4.83334C14.3595 4.83334 14.5833 4.60948 14.5833 4.33334C14.5833 4.05719 14.3595 3.83334 14.0833 3.83334V4.83334ZM19.5 3.83334C19.2239 3.83334 19 4.05719 19 4.33334C19 4.60948 19.2239 4.83334 19.5 4.83334V3.83334ZM21.1667 6.5C21.1667 6.77614 21.3905 7 21.6667 7C21.9428 7 22.1667 6.77614 22.1667 6.5H21.1667ZM22.1667 11.9167C22.1667 11.6405 21.9428 11.4167 21.6667 11.4167C21.3905 11.4167 21.1667 11.6405 21.1667 11.9167H22.1667ZM21.1667 14.0833C21.1667 14.3595 21.3905 14.5833 21.6667 14.5833C21.9428 14.5833 22.1667 14.3595 22.1667 14.0833H21.1667ZM22.1667 19.5C22.1667 19.2239 21.9428 19 21.6667 19C21.3905 19 21.1667 19.2239 21.1667 19.5H22.1667ZM19.5 21.1667C19.2239 21.1667 19 21.3905 19 21.6667C19 21.9428 19.2239 22.1667 19.5 22.1667V21.1667ZM14.0833 22.1667C14.3595 22.1667 14.5833 21.9428 14.5833 21.6667C14.5833 21.3905 14.3595 21.1667 14.0833 21.1667V22.1667ZM11.9167 21.1667C11.6405 21.1667 11.4167 21.3905 11.4167 21.6667C11.4167 21.9428 11.6405 22.1667 11.9167 22.1667V21.1667ZM6.50001 22.1667C6.77615 22.1667 7.00001 21.9428 7.00001 21.6667C7.00001 21.3905 6.77615 21.1667 6.50001 21.1667V22.1667ZM4.83334 19.5C4.83334 19.2239 4.60949 19 4.33334 19C4.0572 19 3.83334 19.2239 3.83334 19.5H4.83334ZM3.83334 14.0833C3.83334 14.3595 4.0572 14.5833 4.33334 14.5833C4.60949 14.5833 4.83334 14.3595 4.83334 14.0833H3.83334ZM4.83334 11.9167C4.83334 11.6405 4.60949 11.4167 4.33334 11.4167C4.0572 11.4167 3.83334 11.6405 3.83334 11.9167H4.83334ZM4.83334 6.5V5.41667H3.83334V6.5H4.83334ZM4.83334 5.41667C4.83334 5.26196 4.8948 5.11359 5.0042 5.00419L4.29709 4.29708C4.00016 4.59402 3.83334 4.99674 3.83334 5.41667H4.83334ZM5.0042 5.00419C5.11359 4.89479 5.26197 4.83334 5.41668 4.83334L5.41668 3.83334C4.99675 3.83334 4.59402 4.00015 4.29709 4.29708L5.0042 5.00419ZM5.41668 4.83334H6.50001V3.83334H5.41668V4.83334ZM11.9167 4.83334H14.0833V3.83334H11.9167V4.83334ZM19.5 4.83334H20.5833V3.83334H19.5V4.83334ZM20.5833 4.83334C20.7381 4.83334 20.8864 4.89479 20.9958 5.00419L21.7029 4.29708C21.406 4.00015 21.0033 3.83334 20.5833 3.83334V4.83334ZM20.9958 5.00419C21.1052 5.11359 21.1667 5.26196 21.1667 5.41667H22.1667C22.1667 4.99674 21.9999 4.59402 21.7029 4.29708L20.9958 5.00419ZM21.1667 5.41667V6.5H22.1667V5.41667H21.1667ZM21.1667 11.9167V14.0833H22.1667V11.9167H21.1667ZM21.1667 19.5V20.5833H22.1667V19.5H21.1667ZM21.1667 20.5833C21.1667 20.738 21.1052 20.8864 20.9958 20.9958L21.7029 21.7029C21.9999 21.406 22.1667 21.0033 22.1667 20.5833H21.1667ZM20.9958 20.9958C20.8864 21.1052 20.7381 21.1667 20.5833 21.1667V22.1667C21.0033 22.1667 21.406 21.9999 21.7029 21.7029L20.9958 20.9958ZM20.5833 21.1667H19.5V22.1667H20.5833V21.1667ZM14.0833 21.1667H11.9167V22.1667H14.0833V21.1667ZM6.50001 21.1667H5.41668V22.1667H6.50001V21.1667ZM5.41668 21.1667C5.26197 21.1667 5.11359 21.1052 5.0042 20.9958L4.29709 21.7029C4.59402 21.9999 4.99675 22.1667 5.41668 22.1667V21.1667ZM5.0042 20.9958C4.8948 20.8864 4.83334 20.738 4.83334 20.5833H3.83334C3.83334 21.0033 4.00016 21.406 4.29709 21.7029L5.0042 20.9958ZM4.83334 20.5833V19.5H3.83334V20.5833H4.83334ZM4.83334 14.0833V11.9167H3.83334V14.0833H4.83334Z" fill="#1864AB"/>
</g>
</svg>
