<svg width="14" height="16" viewBox="0 0 14 16" fill="none" xmlns="http://www.w3.org/2000/svg">
<path id="Vector" d="M1 3.75C0.723858 3.75 0.5 3.97386 0.5 4.25C0.5 4.52614 0.723858 4.75 1 4.75V3.75ZM13 4.75C13.2761 4.75 13.5 4.52614 13.5 4.25C13.5 3.97386 13.2761 3.75 13 3.75V4.75ZM6 7.25C6 6.97386 5.77614 6.75 5.5 6.75C5.22386 6.75 5 6.97386 5 7.25H6ZM5 11.75C5 12.0261 5.22386 12.25 5.5 12.25C5.77614 12.25 6 12.0261 6 11.75H5ZM9 7.25C9 6.97386 8.77614 6.75 8.5 6.75C8.22386 6.75 8 6.97386 8 7.25H9ZM8 11.75C8 12.0261 8.22386 12.25 8.5 12.25C8.77614 12.25 9 12.0261 9 11.75H8ZM2.24827 4.20848C2.22534 3.93329 1.98367 3.72879 1.70848 3.75173C1.43329 3.77466 1.22879 4.01633 1.25173 4.29152L2.24827 4.20848ZM2.5 13.25H3C3 13.2361 2.99942 13.2223 2.99827 13.2085L2.5 13.25ZM11.5 13.25L11.0017 13.2085C11.0006 13.2223 11 13.2361 11 13.25H11.5ZM12.7483 4.29152C12.7712 4.01633 12.5667 3.77466 12.2915 3.75173C12.0163 3.72879 11.7747 3.93329 11.7517 4.20848L12.7483 4.29152ZM4.25 4.25C4.25 4.52614 4.47386 4.75 4.75 4.75C5.02614 4.75 5.25 4.52614 5.25 4.25H4.25ZM5.5 1.25V0.75V1.25ZM8.5 1.25V0.75V1.25ZM8.75 4.25C8.75 4.52614 8.97386 4.75 9.25 4.75C9.52614 4.75 9.75 4.52614 9.75 4.25H8.75ZM1 4.75H13V3.75H1V4.75ZM5 7.25V11.75H6V7.25H5ZM8 7.25V11.75H9V7.25H8ZM1.25173 4.29152L2.00173 13.2915L2.99827 13.2085L2.24827 4.20848L1.25173 4.29152ZM2 13.25C2 13.7804 2.21071 14.2891 2.58579 14.6642L3.29289 13.9571C3.10536 13.7696 3 13.5152 3 13.25H2ZM2.58579 14.6642C2.96086 15.0393 3.46957 15.25 4 15.25V14.25C3.73478 14.25 3.48043 14.1446 3.29289 13.9571L2.58579 14.6642ZM4 15.25H10V14.25H4V15.25ZM10 15.25C10.5304 15.25 11.0391 15.0393 11.4142 14.6642L10.7071 13.9571C10.5196 14.1446 10.2652 14.25 10 14.25V15.25ZM11.4142 14.6642C11.7893 14.2891 12 13.7804 12 13.25H11C11 13.5152 10.8946 13.7696 10.7071 13.9571L11.4142 14.6642ZM11.9983 13.2915L12.7483 4.29152L11.7517 4.20848L11.0017 13.2085L11.9983 13.2915ZM5.25 4.25V2H4.25V4.25H5.25ZM5.25 2C5.25 1.9337 5.27634 1.87011 5.32322 1.82322L4.61612 1.11612C4.3817 1.35054 4.25 1.66848 4.25 2H5.25ZM5.32322 1.82322C5.37011 1.77634 5.4337 1.75 5.5 1.75V0.75C5.16848 0.75 4.85054 0.881696 4.61612 1.11612L5.32322 1.82322ZM5.5 1.75H8.5V0.75H5.5V1.75ZM8.5 1.75C8.5663 1.75 8.62989 1.77634 8.67678 1.82322L9.38388 1.11612C9.14946 0.881696 8.83152 0.75 8.5 0.75V1.75ZM8.67678 1.82322C8.72366 1.87011 8.75 1.9337 8.75 2H9.75C9.75 1.66848 9.6183 1.35054 9.38388 1.11612L8.67678 1.82322ZM8.75 2V4.25H9.75V2H8.75Z" fill="#FA5252"/>
</svg>
