<svg width="35" height="35" viewBox="0 0 35 35" fill="none" xmlns="http://www.w3.org/2000/svg">
<g id="user-x">
<path id="Vector" d="M4.25 30.25C4.25 30.5261 4.47386 30.75 4.75 30.75C5.02614 30.75 5.25 30.5261 5.25 30.25H4.25ZM10.4167 21.75V21.25V21.75ZM16.0833 21.75V21.25V21.75ZM21.75 27.4167H22.25H21.75ZM21.25 30.25C21.25 30.5261 21.4739 30.75 21.75 30.75C22.0261 30.75 22.25 30.5261 22.25 30.25H21.25ZM24.9369 12.8964C24.7416 12.7012 24.425 12.7012 24.2298 12.8964C24.0345 13.0917 24.0345 13.4083 24.2298 13.6036L24.9369 12.8964ZM29.8964 19.2702C30.0917 19.4655 30.4083 19.4655 30.6036 19.2702C30.7988 19.075 30.7988 18.7584 30.6036 18.5631L29.8964 19.2702ZM30.6036 13.6036C30.7988 13.4083 30.7988 13.0917 30.6036 12.8964C30.4083 12.7012 30.0917 12.7012 29.8964 12.8964L30.6036 13.6036ZM24.2298 18.5631C24.0345 18.7584 24.0345 19.075 24.2298 19.2702C24.425 19.4655 24.7416 19.4655 24.9369 19.2702L24.2298 18.5631ZM18.4167 10.4167C18.4167 13.2701 16.1035 15.5833 13.25 15.5833V16.5833C16.6558 16.5833 19.4167 13.8224 19.4167 10.4167H18.4167ZM13.25 15.5833C10.3965 15.5833 8.08333 13.2701 8.08333 10.4167H7.08333C7.08333 13.8224 9.84424 16.5833 13.25 16.5833V15.5833ZM8.08333 10.4167C8.08333 7.5632 10.3965 5.25 13.25 5.25V4.25C9.84424 4.25 7.08333 7.01091 7.08333 10.4167H8.08333ZM13.25 5.25C16.1035 5.25 18.4167 7.5632 18.4167 10.4167H19.4167C19.4167 7.01091 16.6558 4.25 13.25 4.25V5.25ZM5.25 30.25V27.4167H4.25V30.25H5.25ZM5.25 27.4167C5.25 26.0464 5.79434 24.7322 6.76328 23.7633L6.05617 23.0562C4.8997 24.2127 4.25 25.7812 4.25 27.4167H5.25ZM6.76328 23.7633C7.73222 22.7943 9.04638 22.25 10.4167 22.25V21.25C8.78116 21.25 7.21265 21.8997 6.05617 23.0562L6.76328 23.7633ZM10.4167 22.25H16.0833V21.25H10.4167V22.25ZM16.0833 22.25C17.4536 22.25 18.7678 22.7943 19.7367 23.7633L20.4438 23.0562C19.2874 21.8997 17.7188 21.25 16.0833 21.25V22.25ZM19.7367 23.7633C20.7057 24.7322 21.25 26.0464 21.25 27.4167H22.25C22.25 25.7812 21.6003 24.2127 20.4438 23.0562L19.7367 23.7633ZM21.25 27.4167V30.25H22.25V27.4167H21.25ZM24.2298 13.6036L29.8964 19.2702L30.6036 18.5631L24.9369 12.8964L24.2298 13.6036ZM29.8964 12.8964L24.2298 18.5631L24.9369 19.2702L30.6036 13.6036L29.8964 12.8964Z" fill="#FA5252"/>
</g>
</svg>
