<svg width="15" height="15" viewBox="0 0 15 15" fill="none" xmlns="http://www.w3.org/2000/svg">
<path id="Vector" d="M3.25 4.75C3.52614 4.75 3.75 4.52614 3.75 4.25C3.75 3.97386 3.52614 3.75 3.25 3.75V4.75ZM2.5 4.25V3.75V4.25ZM1 5.75H0.5H1ZM1 12.5H0.5H1ZM11.25 11.75C11.25 11.4739 11.0261 11.25 10.75 11.25C10.4739 11.25 10.25 11.4739 10.25 11.75H11.25ZM13.2887 3.93883L12.9352 3.58528L12.9346 3.58591L13.2887 3.93883ZM12.175 1.25L12.175 0.75L12.175 1.25ZM11.0613 1.71133L11.4142 2.06552L11.4148 2.06488L11.0613 1.71133ZM4.75 8.00008L4.39708 7.6459C4.30292 7.73972 4.25 7.86716 4.25 8.00008H4.75ZM4.75 10.2501H4.25C4.25 10.5262 4.47386 10.7501 4.75 10.7501V10.2501ZM7 10.2501V10.7501C7.13292 10.7501 7.26037 10.6972 7.35418 10.603L7 10.2501ZM10.3536 2.39645C10.1583 2.20118 9.84171 2.20118 9.64645 2.39645C9.45118 2.59171 9.45118 2.90829 9.64645 3.10355L10.3536 2.39645ZM11.8964 5.35355C12.0917 5.54882 12.4083 5.54882 12.6036 5.35355C12.7988 5.15829 12.7988 4.84171 12.6036 4.64645L11.8964 5.35355ZM3.25 3.75H2.5V4.75H3.25V3.75ZM2.5 3.75C1.96957 3.75 1.46086 3.96071 1.08579 4.33579L1.79289 5.04289C1.98043 4.85536 2.23478 4.75 2.5 4.75V3.75ZM1.08579 4.33579C0.710714 4.71086 0.5 5.21957 0.5 5.75H1.5C1.5 5.48478 1.60536 5.23043 1.79289 5.04289L1.08579 4.33579ZM0.5 5.75V12.5H1.5V5.75H0.5ZM0.5 12.5C0.5 13.0304 0.710714 13.5391 1.08579 13.9142L1.79289 13.2071C1.60536 13.0196 1.5 12.7652 1.5 12.5H0.5ZM1.08579 13.9142C1.46086 14.2893 1.96957 14.5 2.5 14.5V13.5C2.23478 13.5 1.98043 13.3946 1.79289 13.2071L1.08579 13.9142ZM2.5 14.5H9.25V13.5H2.5V14.5ZM9.25 14.5C9.78043 14.5 10.2891 14.2893 10.6642 13.9142L9.95711 13.2071C9.76957 13.3946 9.51522 13.5 9.25 13.5V14.5ZM10.6642 13.9142C11.0393 13.5391 11.25 13.0304 11.25 12.5H10.25C10.25 12.7652 10.1446 13.0196 9.95711 13.2071L10.6642 13.9142ZM11.25 12.5V11.75H10.25V12.5H11.25ZM13.6423 4.29238C14.0315 3.90323 14.2501 3.37543 14.2501 2.82508L13.2501 2.82508C13.2501 3.11021 13.1368 3.38366 12.9352 3.58528L13.6423 4.29238ZM14.2501 2.82508C14.2501 2.27473 14.0315 1.74693 13.6423 1.35778L12.9352 2.06488C13.1368 2.2665 13.2501 2.53995 13.2501 2.82508L14.2501 2.82508ZM13.6423 1.35778C13.2531 0.968624 12.7253 0.75 12.175 0.75L12.175 1.75C12.4601 1.75 12.7336 1.86327 12.9352 2.06488L13.6423 1.35778ZM12.175 0.75C11.6247 0.75 11.0969 0.968624 10.7077 1.35778L11.4148 2.06488C11.6164 1.86327 11.8899 1.75 12.175 1.75L12.175 0.75ZM10.7083 1.35715L4.39708 7.6459L5.10292 8.35426L11.4142 2.06551L10.7083 1.35715ZM4.25 8.00008V10.2501H5.25V8.00008H4.25ZM4.75 10.7501H7V9.75008H4.75V10.7501ZM7.35418 10.603L13.6429 4.29175L12.9346 3.58591L6.64582 9.89716L7.35418 10.603ZM9.64645 3.10355L11.8964 5.35355L12.6036 4.64645L10.3536 2.39645L9.64645 3.10355Z" fill="#2393F4"/>
</svg>
