<svg width="26" height="26" viewBox="0 0 26 26" fill="none" xmlns="http://www.w3.org/2000/svg">
<g id="evaporador-off">
<path id="Vector" d="M21.1248 11.375C21.1248 10.1784 20.1548 9.20832 18.9582 9.20832H13.5415M21.1248 11.375C21.1248 5.74166 17.5137 5.05555 15.7082 5.41666V2.16666M21.1248 11.375V17.3333M2.1665 18.4167H6.49984M2.1665 13.5417H6.49984M22.7498 13.5417H18.4165M10.2915 18.4167H14.6248M10.2915 13.5417H13.5415M3.24984 3.24999L9.20817 9.20832M22.7498 22.75L20.9334 20.9335M9.20817 9.20832H5.95817C4.76155 9.20832 3.7915 10.1784 3.7915 11.375V20.0417C3.7915 21.2383 4.76155 22.2083 5.95817 22.2083H18.9582C19.8369 22.2083 20.5934 21.6853 20.9334 20.9335M9.20817 9.20832L20.9334 20.9335" stroke="#FA5252" stroke-linecap="round" stroke-linejoin="round"/>
</g>
</svg>
