<svg width="18" height="18" viewBox="0 0 18 18" fill="none" xmlns="http://www.w3.org/2000/svg">
<g id="fridge">
<path id="Vector" d="M14.25 3.75C14.25 3.35218 14.092 2.97064 13.8107 2.68934C13.5294 2.40804 13.1478 2.25 12.75 2.25H5.25C4.85218 2.25 4.47064 2.40804 4.18934 2.68934C3.90804 2.97064 3.75 3.35218 3.75 3.75V12.75M14.25 3.75V14.25M14.25 3.75V12.75M14.25 14.25C14.25 14.6478 14.092 15.0294 13.8107 15.3107C13.5294 15.592 13.1478 15.75 12.75 15.75H5.25C4.85218 15.75 4.47064 15.592 4.18934 15.3107C3.90804 15.0294 3.75 14.6478 3.75 14.25V12.75M14.25 14.25V12.75M3.75 12.75H14.25M12 14.25V15M12.75 7.5V8.25M6 14.25V15" stroke="black" stroke-linecap="round" stroke-linejoin="round"/>
</g>
</svg>
