<svg width="26" height="26" viewBox="0 0 26 26" fill="none" xmlns="http://www.w3.org/2000/svg">
<g id="fridges">
<path id="Vector" d="M16.25 20.5833H20.8929C21.3854 20.5833 21.8578 20.3804 22.2061 20.0192C22.5543 19.6581 22.75 19.1682 22.75 18.6574V5.17593C22.75 4.66514 22.5543 4.17527 22.2061 3.81409C21.8578 3.45291 21.3854 3.25 20.8929 3.25H11.6071C11.1146 3.25 10.6422 3.45291 10.2939 3.81409C9.94566 4.17527 9.75 4.66514 9.75 5.17593V6.5M16.25 16.25H22.75M19.5 18.4167H16.7917M13 21.6667H6.5M3.25 11.375L4.875 11.9167V13.8125V15.7083L3.25 16.25M3.25 19.5H16.25M3.25 8.42593C3.25 7.91514 3.44566 7.42527 3.79394 7.06409C4.14223 6.70291 4.6146 6.5 5.10714 6.5H14.3929C14.8854 6.5 15.3578 6.70291 15.7061 7.06409C16.0543 7.42527 16.25 7.91514 16.25 8.42593V21.9074C16.25 22.4182 16.0543 22.9081 15.7061 23.2692C15.3578 23.6304 14.8854 23.8333 14.3929 23.8333H5.10714C4.6146 23.8333 4.14223 23.6304 3.79394 23.2692C3.44566 22.9081 3.25 22.4182 3.25 21.9074V19.9815V8.42593Z" stroke="#313A49" stroke-linecap="round" stroke-linejoin="round"/>
</g>
</svg>
