<svg width="11" height="11" viewBox="0 0 11 11" fill="none" xmlns="http://www.w3.org/2000/svg">
<g id="fridge">
<path id="Vector" d="M8.26923 2.50002C8.26923 2.27561 8.18008 2.06039 8.0214 1.9017C7.86271 1.74302 7.64749 1.65387 7.42308 1.65387H3.19231C2.96789 1.65387 2.75267 1.74302 2.59399 1.9017C2.4353 2.06039 2.34615 2.27561 2.34615 2.50002V7.15387M8.26923 2.50002V8.4231M8.26923 2.50002V7.15387M8.26923 8.4231C8.26923 8.64751 8.18008 8.86274 8.0214 9.02142C7.86271 9.18011 7.64749 9.26925 7.42308 9.26925H3.19231C2.96789 9.26925 2.75267 9.18011 2.59399 9.02142C2.4353 8.86274 2.34615 8.64751 2.34615 8.4231V7.15387M8.26923 8.4231V7.15387M2.34615 7.15387H8.26923M7 8.63464H3.61538M2.34615 3.76925L3.19231 3.98079V5.88464L2.34615 6.09618M7 8.00002H3.61538" stroke="#ED5079" stroke-linecap="round" stroke-linejoin="round"/>
</g>
</svg>
