<svg width="26" height="26" viewBox="0 0 26 26" fill="none" xmlns="http://www.w3.org/2000/svg">
<g id="fridge">
<path id="Vector" d="M20.5833 5.41667C20.5833 4.84203 20.355 4.29093 19.9487 3.8846C19.5424 3.47827 18.9913 3.25 18.4166 3.25H7.58329C7.00866 3.25 6.45756 3.47827 6.05123 3.8846C5.6449 4.29093 5.41663 4.84203 5.41663 5.41667V17.3333M20.5833 5.41667V20.5833M20.5833 5.41667V17.3333M20.5833 20.5833C20.5833 21.158 20.355 21.7091 19.9487 22.1154C19.5424 22.5217 18.9913 22.75 18.4166 22.75H7.58329C7.00866 22.75 6.45756 22.5217 6.05123 22.1154C5.6449 21.7091 5.41663 21.158 5.41663 20.5833V17.3333M20.5833 20.5833V17.3333M5.41663 17.3333H20.5833M17.3333 21.125H8.66663M5.41663 8.66667L7.58329 9.20833V14.0833L5.41663 14.625M17.3333 19.5H8.66663" stroke="#313A49" stroke-linecap="round" stroke-linejoin="round"/>
</g>
</svg>
