<svg width="26" height="26" viewBox="0 0 26 26" fill="none" xmlns="http://www.w3.org/2000/svg">
<g id="gauge">
<path id="Vector" d="M14.5275 11.4725L17.3333 8.66667M7.58333 13C7.58333 11.5634 8.15402 10.1857 9.16984 9.16984C10.1857 8.15402 11.5634 7.58333 13 7.58333M22.75 13C22.75 18.3848 18.3848 22.75 13 22.75C7.61522 22.75 3.25 18.3848 3.25 13C3.25 7.61522 7.61522 3.25 13 3.25C18.3848 3.25 22.75 7.61522 22.75 13ZM14.0833 13C14.0833 13.5983 13.5983 14.0833 13 14.0833C12.4017 14.0833 11.9167 13.5983 11.9167 13C11.9167 12.4017 12.4017 11.9167 13 11.9167C13.5983 11.9167 14.0833 12.4017 14.0833 13Z" stroke="#313A49" stroke-linecap="round" stroke-linejoin="round"/>
</g>
</svg>
