<svg width="14" height="14" viewBox="0 0 14 14" fill="none" xmlns="http://www.w3.org/2000/svg">
<g id="gauge">
<path id="Vector" d="M7.82248 6.1775L9.33332 4.66667M4.08333 7C4.08333 6.22645 4.39062 5.48459 4.93761 4.93761C5.48459 4.39062 6.22645 4.08333 7 4.08333M12.25 7C12.25 9.89949 9.89949 12.25 7 12.25C4.1005 12.25 1.75 9.89949 1.75 7C1.75 4.1005 4.1005 1.75 7 1.75C9.89949 1.75 12.25 4.1005 12.25 7ZM7.58333 7C7.58333 7.32217 7.32217 7.58333 7 7.58333C6.67783 7.58333 6.41667 7.32217 6.41667 7C6.41667 6.67783 6.67783 6.41667 7 6.41667C7.32217 6.41667 7.58333 6.67783 7.58333 7Z" stroke="#2393F4" stroke-linecap="round" stroke-linejoin="round"/>
</g>
</svg>
