<svg width="23" height="27" viewBox="0 0 23 27" fill="none" xmlns="http://www.w3.org/2000/svg">
<g id="Mappin">
<path d="M18.7647 10.6682C18.7647 14.5342 15.6307 17.6682 11.7647 17.6682C7.89875 17.6682 4.76474 14.5342 4.76474 10.6682C4.76474 6.80222 7.89875 3.66821 11.7647 3.66821C15.6307 3.66821 18.7647 6.80222 18.7647 10.6682Z" fill="#FFF2F6"/>
<path fill-rule="evenodd" clip-rule="evenodd" d="M3.94624 18.4222C2.78711 16.9181 1.36033 15.1146 0.935935 13.0971C0.511543 11.0797 0.729413 8.98862 1.56199 7.08827C2.39457 5.18793 3.80447 3.56368 5.6134 2.42092C7.42233 1.27816 9.54904 0.668213 11.7246 0.668213C13.9002 0.668213 16.0269 1.27816 17.8358 2.42092C19.6447 3.56368 21.0546 5.18793 21.8872 7.08827C22.7198 8.98862 22.9377 11.0797 22.5133 13.0971C22.0889 15.1146 20.6621 16.9181 19.503 18.4222L11.7246 26.6682L3.94624 18.4222ZM11.7647 17.6682C15.6307 17.6682 18.7647 14.5342 18.7647 10.6682C18.7647 6.80222 15.6307 3.66821 11.7647 3.66821C7.89875 3.66821 4.76474 6.80222 4.76474 10.6682C4.76474 14.5342 7.89875 17.6682 11.7647 17.6682Z" fill="#ED5079"/>
</g>
</svg>
