<svg width="26" height="26" viewBox="0 0 26 26" fill="none" xmlns="http://www.w3.org/2000/svg">
<g id="brand-flightradar24">
<path id="Vector" d="M8.75025 21.4663C8.63957 21.7192 8.75493 22.0141 9.00792 22.1247C9.26091 22.2354 9.55573 22.1201 9.66641 21.8671L8.75025 21.4663ZM13 13L13.4581 13.2004C13.5529 12.9836 13.4828 12.73 13.2901 12.5927C13.0973 12.4555 12.8347 12.4721 12.6609 12.6326L13 13ZM5.61919 19.1326C5.41628 19.3199 5.40363 19.6362 5.59093 19.8391C5.77823 20.0421 6.09456 20.0547 6.29747 19.8674L5.61919 19.1326ZM22.25 13C22.25 18.1086 18.1086 22.25 13 22.25V23.25C18.6609 23.25 23.25 18.6609 23.25 13H22.25ZM13 22.25C7.89137 22.25 3.75 18.1086 3.75 13H2.75C2.75 18.6609 7.33908 23.25 13 23.25V22.25ZM3.75 13C3.75 7.89137 7.89137 3.75 13 3.75V2.75C7.33908 2.75 2.75 7.33908 2.75 13H3.75ZM13 3.75C18.1086 3.75 22.25 7.89137 22.25 13H23.25C23.25 7.33908 18.6609 2.75 13 2.75V3.75ZM17.9167 13C17.9167 15.7154 15.7154 17.9167 13 17.9167V18.9167C16.2677 18.9167 18.9167 16.2677 18.9167 13H17.9167ZM13 17.9167C10.2846 17.9167 8.08333 15.7154 8.08333 13H7.08333C7.08333 16.2677 9.73232 18.9167 13 18.9167V17.9167ZM8.08333 13C8.08333 10.2846 10.2846 8.08333 13 8.08333V7.08333C9.73232 7.08333 7.08333 9.73232 7.08333 13H8.08333ZM13 8.08333C15.7154 8.08333 17.9167 10.2846 17.9167 13H18.9167C18.9167 9.73232 16.2677 7.08333 13 7.08333V8.08333ZM9.66641 21.8671L13.4581 13.2004L12.5419 12.7996L8.75025 21.4663L9.66641 21.8671ZM12.6609 12.6326L5.61919 19.1326L6.29747 19.8674L13.3391 13.3674L12.6609 12.6326ZM13.5833 13C13.5833 13.3222 13.3222 13.5833 13 13.5833V14.5833C13.8745 14.5833 14.5833 13.8745 14.5833 13H13.5833ZM13 13.5833C12.6778 13.5833 12.4167 13.3222 12.4167 13H11.4167C11.4167 13.8745 12.1255 14.5833 13 14.5833V13.5833ZM12.4167 13C12.4167 12.6778 12.6778 12.4167 13 12.4167V11.4167C12.1255 11.4167 11.4167 12.1255 11.4167 13H12.4167ZM13 12.4167C13.3222 12.4167 13.5833 12.6778 13.5833 13H14.5833C14.5833 12.1255 13.8745 11.4167 13 11.4167V12.4167Z" fill="#1864AB"/>
</g>
</svg>
