<svg width="24" height="24" viewBox="0 0 24 24" fill="none" xmlns="http://www.w3.org/2000/svg">
<g id="E-commerce">
<rect x="0.25" y="0.25" width="23.5" height="23.5" rx="1.75" fill="#FEF5C7"/>
<rect x="0.25" y="0.25" width="23.5" height="23.5" rx="1.75" stroke="#451C03" stroke-width="0.5"/>
<path id="Vector" d="M2 3H3C3.53043 3 4.03914 3.21071 4.41421 3.58579C4.78929 3.96086 5 4.46957 5 5V15C5 15.5304 5.21071 16.0391 5.58579 16.4142C5.96086 16.7893 6.46957 17 7 17H22M12 6H16C17.6569 6 19 7.34315 19 9V11C19 12.6569 17.6569 14 16 14H12C10.3431 14 9 12.6569 9 11V9C9 7.34315 10.3431 6 12 6ZM11 19C11 20.1046 10.1046 21 9 21C7.89543 21 7 20.1046 7 19C7 17.8954 7.89543 17 9 17C10.1046 17 11 17.8954 11 19ZM20 19C20 20.1046 19.1046 21 18 21C16.8954 21 16 20.1046 16 19C16 17.8954 16.8954 17 18 17C19.1046 17 20 17.8954 20 19Z" stroke="#451C03" stroke-width="1.5" stroke-linecap="round" stroke-linejoin="round"/>
</g>
</svg>
