<svg width="26" height="26" viewBox="0 0 26 26" fill="none" xmlns="http://www.w3.org/2000/svg">
<g id="truck-loading">
<path id="Vector" d="M2.16666 2.75C1.89051 2.75 1.66666 2.97386 1.66666 3.25C1.66666 3.52614 1.89051 3.75 2.16666 3.75V2.75ZM3.24999 3.25V2.75V3.25ZM5.41666 5.41667L5.91666 5.41667L5.41666 5.41667ZM5.41666 16.25H4.91666H5.41666ZM23.8333 18.9167C24.1095 18.9167 24.3333 18.6928 24.3333 18.4167C24.3333 18.1405 24.1095 17.9167 23.8333 17.9167V18.9167ZM2.16666 3.75H3.24999V2.75H2.16666V3.75ZM3.24999 3.75C3.69202 3.75 4.11594 3.92559 4.4285 4.23816L5.13561 3.53105C4.63551 3.03095 3.95723 2.75 3.24999 2.75L3.24999 3.75ZM4.4285 4.23816C4.74106 4.55072 4.91666 4.97464 4.91666 5.41667L5.91666 5.41667C5.91666 4.70942 5.63571 4.03115 5.13561 3.53105L4.4285 4.23816ZM4.91666 5.41667V16.25H5.91666V5.41667H4.91666ZM4.91666 16.25C4.91666 16.9572 5.19761 17.6355 5.69771 18.1356L6.40481 17.4285C6.09225 17.116 5.91666 16.692 5.91666 16.25H4.91666ZM5.69771 18.1356C6.1978 18.6357 6.87608 18.9167 7.58332 18.9167V17.9167C7.1413 17.9167 6.71737 17.7411 6.40481 17.4285L5.69771 18.1356ZM7.58332 18.9167H23.8333V17.9167H7.58332V18.9167ZM13 7H17.3333V6H13V7ZM17.3333 7C18.8521 7 20.0833 8.23122 20.0833 9.75H21.0833C21.0833 7.67893 19.4044 6 17.3333 6V7ZM20.0833 9.75V11.9167H21.0833V9.75H20.0833ZM20.0833 11.9167C20.0833 13.4355 18.8521 14.6667 17.3333 14.6667V15.6667C19.4044 15.6667 21.0833 13.9877 21.0833 11.9167H20.0833ZM17.3333 14.6667H13V15.6667H17.3333V14.6667ZM13 14.6667C11.4812 14.6667 10.25 13.4355 10.25 11.9167H9.24999C9.24999 13.9877 10.9289 15.6667 13 15.6667V14.6667ZM10.25 11.9167V9.75H9.24999V11.9167H10.25ZM10.25 9.75C10.25 8.23122 11.4812 7 13 7V6C10.9289 6 9.24999 7.67893 9.24999 9.75H10.25ZM11.4167 20.5833C11.4167 21.5038 10.6705 22.25 9.74999 22.25V23.25C11.2227 23.25 12.4167 22.0561 12.4167 20.5833H11.4167ZM9.74999 22.25C8.82952 22.25 8.08332 21.5038 8.08332 20.5833H7.08332C7.08332 22.0561 8.27723 23.25 9.74999 23.25V22.25ZM8.08332 20.5833C8.08332 19.6629 8.82952 18.9167 9.74999 18.9167V17.9167C8.27723 17.9167 7.08332 19.1106 7.08332 20.5833H8.08332ZM9.74999 18.9167C10.6705 18.9167 11.4167 19.6629 11.4167 20.5833H12.4167C12.4167 19.1106 11.2227 17.9167 9.74999 17.9167V18.9167ZM21.1667 20.5833C21.1667 21.5038 20.4205 22.25 19.5 22.25V23.25C20.9727 23.25 22.1667 22.0561 22.1667 20.5833H21.1667ZM19.5 22.25C18.5795 22.25 17.8333 21.5038 17.8333 20.5833H16.8333C16.8333 22.0561 18.0272 23.25 19.5 23.25V22.25ZM17.8333 20.5833C17.8333 19.6629 18.5795 18.9167 19.5 18.9167V17.9167C18.0272 17.9167 16.8333 19.1106 16.8333 20.5833H17.8333ZM19.5 18.9167C20.4205 18.9167 21.1667 19.6629 21.1667 20.5833H22.1667C22.1667 19.1106 20.9727 17.9167 19.5 17.9167V18.9167Z" fill="#1864AB"/>
</g>
</svg>
