<svg width="26" height="26" viewBox="0 0 26 26" fill="none" xmlns="http://www.w3.org/2000/svg">
<g id="notification">
<path id="Vector" d="M10.8332 6.49998H7.58317C7.00853 6.49998 6.45743 6.72825 6.05111 7.13458C5.64478 7.54091 5.4165 8.09201 5.4165 8.66665V18.4166C5.4165 18.9913 5.64478 19.5424 6.05111 19.9487C6.45743 20.355 7.00853 20.5833 7.58317 20.5833H17.3332C17.9078 20.5833 18.4589 20.355 18.8652 19.9487C19.2716 19.5424 19.4998 18.9913 19.4998 18.4166V15.1666M21.6665 7.58331C21.6665 9.37824 20.2114 10.8333 18.4165 10.8333C16.6216 10.8333 15.1665 9.37824 15.1665 7.58331C15.1665 5.78839 16.6216 4.33331 18.4165 4.33331C20.2114 4.33331 21.6665 5.78839 21.6665 7.58331Z" stroke="#313A49" stroke-linecap="round" stroke-linejoin="round"/>
</g>
</svg>
