<svg width="27" height="26" viewBox="0 0 27 26" fill="none" xmlns="http://www.w3.org/2000/svg">
<g id="map-pin-off">
<path id="Vector" d="M3.75 3.25L23.25 22.75M10.7267 10.2212C10.3458 10.8437 10.1855 11.5763 10.2716 12.301C10.3578 13.0257 10.6853 13.7003 11.2014 14.2162C11.7176 14.7321 12.3923 15.0593 13.1171 15.145C13.8418 15.2308 14.5743 15.0701 15.1966 14.6889M16.7501 11.9167C16.7501 11.0547 16.4077 10.2281 15.7982 9.61856C15.1887 9.00907 14.362 8.66666 13.5001 8.66666M9.21877 4.37883C10.8687 3.43929 12.7816 3.0676 14.6633 3.32087C16.5451 3.57414 18.2916 4.43836 19.6344 5.7807C20.9772 7.12305 21.8421 8.86924 22.0961 10.7509C22.35 12.6325 21.979 14.5455 21.0401 16.1958M19.0901 18.5857L15.033 22.6417C14.6268 23.0475 14.076 23.2755 13.5017 23.2755C12.9275 23.2755 12.3767 23.0475 11.9704 22.6417L7.37277 18.0451C5.84136 16.5139 4.93867 14.4649 4.84243 12.3015C4.74619 10.1381 5.46337 8.01701 6.85277 6.35591" stroke="#ED5079" stroke-linecap="round" stroke-linejoin="round"/>
</g>
</svg>
