<svg width="13" height="13" viewBox="0 0 13 13" fill="none" xmlns="http://www.w3.org/2000/svg">
<g id="Component 1/pdv" clip-path="url(#clip0_4814_9496)">
<path id="Vector" d="M2.3335 10.3318C2.05735 10.3318 1.8335 10.5556 1.8335 10.8318C1.8335 11.1079 2.05735 11.3318 2.3335 11.3318V10.3318ZM7.3335 11.3318C7.60964 11.3318 7.8335 11.1079 7.8335 10.8318C7.8335 10.5556 7.60964 10.3318 7.3335 10.3318V11.3318ZM2.3335 3.83179L1.88628 3.60818C1.85157 3.67761 1.8335 3.75416 1.8335 3.83179H2.3335ZM2.3335 4.33179H1.8335H2.3335ZM11.3335 4.33179H11.8335H11.3335ZM11.3335 3.83179H11.8335C11.8335 3.75416 11.8154 3.67761 11.7807 3.60818L11.3335 3.83179ZM3.3335 1.83179V1.33179C3.14411 1.33179 2.97098 1.43879 2.88628 1.60818L3.3335 1.83179ZM10.3335 1.83179L10.7807 1.60818C10.696 1.43879 10.5229 1.33179 10.3335 1.33179V1.83179ZM2.8335 10.8318C2.8335 11.1079 3.05735 11.3318 3.3335 11.3318C3.60964 11.3318 3.8335 11.1079 3.8335 10.8318H2.8335ZM3.8335 5.75677C3.8335 5.48063 3.60964 5.25677 3.3335 5.25677C3.05735 5.25677 2.8335 5.48063 2.8335 5.75677H3.8335ZM4.8335 10.8318C4.8335 11.1079 5.05735 11.3318 5.3335 11.3318C5.60964 11.3318 5.8335 11.1079 5.8335 10.8318H4.8335ZM6.3335 7.83179V8.33179V7.83179ZM11.2871 10.1601L10.9434 9.79694L10.9433 9.79706L11.2871 10.1601ZM10.0498 7.33179V6.83179V7.33179ZM8.81258 10.1601L9.15639 9.79706L9.15627 9.79694L8.81258 10.1601ZM10.0498 11.3318L9.70603 11.6948C9.89886 11.8774 10.2008 11.8774 10.3936 11.6948L10.0498 11.3318ZM10.5498 8.98882C10.5498 8.71268 10.326 8.48882 10.0498 8.48882C9.77369 8.48882 9.54983 8.71268 9.54983 8.98882H10.5498ZM9.54983 8.99297C9.54983 9.26911 9.77369 9.49297 10.0498 9.49297C10.326 9.49297 10.5498 9.26911 10.5498 8.99297H9.54983ZM7.3335 8.33179C7.60964 8.33179 7.8335 8.10793 7.8335 7.83179C7.8335 7.55564 7.60964 7.33179 7.3335 7.33179V8.33179ZM2.3335 11.3318H7.3335V10.3318H2.3335V11.3318ZM1.8335 3.83179V4.33179H2.8335V3.83179H1.8335ZM1.8335 4.33179C1.8335 4.86222 2.04421 5.37093 2.41928 5.746L3.12639 5.03889C2.93885 4.85136 2.8335 4.597 2.8335 4.33179H1.8335ZM2.41928 5.746C2.79436 6.12107 3.30306 6.33179 3.8335 6.33179V5.33179C3.56828 5.33179 3.31393 5.22643 3.12639 5.03889L2.41928 5.746ZM3.8335 6.33179C4.36393 6.33179 4.87264 6.12107 5.24771 5.746L4.5406 5.03889C4.35307 5.22643 4.09871 5.33179 3.8335 5.33179V6.33179ZM5.24771 5.746C5.62278 5.37093 5.8335 4.86222 5.8335 4.33179H4.8335C4.8335 4.597 4.72814 4.85136 4.5406 5.03889L5.24771 5.746ZM5.8335 4.33179V3.83179H4.8335V4.33179H5.8335ZM4.8335 4.33179C4.8335 4.86222 5.04421 5.37093 5.41928 5.746L6.12639 5.03889C5.93885 4.85136 5.8335 4.597 5.8335 4.33179H4.8335ZM5.41928 5.746C5.79436 6.12107 6.30306 6.33179 6.8335 6.33179V5.33179C6.56828 5.33179 6.31393 5.22643 6.12639 5.03889L5.41928 5.746ZM6.8335 6.33179C7.36393 6.33179 7.87264 6.12107 8.24771 5.746L7.5406 5.03889C7.35307 5.22643 7.09871 5.33179 6.8335 5.33179V6.33179ZM8.24771 5.746C8.62278 5.37093 8.8335 4.86222 8.8335 4.33179H7.8335C7.8335 4.597 7.72814 4.85136 7.5406 5.03889L8.24771 5.746ZM8.8335 4.33179V3.83179H7.8335V4.33179H8.8335ZM7.8335 4.33179C7.8335 4.86222 8.04421 5.37093 8.41928 5.746L9.12639 5.03889C8.93885 4.85136 8.8335 4.597 8.8335 4.33179H7.8335ZM8.41928 5.746C8.79436 6.12107 9.30306 6.33179 9.8335 6.33179V5.33179C9.56828 5.33179 9.31393 5.22643 9.12639 5.03889L8.41928 5.746ZM9.8335 6.33179C10.3639 6.33179 10.8726 6.12107 11.2477 5.746L10.5406 5.03889C10.3531 5.22643 10.0987 5.33179 9.8335 5.33179V6.33179ZM11.2477 5.746C11.6228 5.37093 11.8335 4.86222 11.8335 4.33179L10.8335 4.33179C10.8335 4.597 10.7281 4.85136 10.5406 5.03889L11.2477 5.746ZM11.8335 4.33179V3.83179H10.8335V4.33179H11.8335ZM11.3335 3.33179H2.3335V4.33179H11.3335V3.33179ZM2.78071 4.05539L3.78071 2.05539L2.88628 1.60818L1.88628 3.60818L2.78071 4.05539ZM3.3335 2.33179H10.3335V1.33179H3.3335V2.33179ZM9.88628 2.05539L10.8863 4.05539L11.7807 3.60818L10.7807 1.60818L9.88628 2.05539ZM3.8335 10.8318V5.75677H2.8335V10.8318H3.8335ZM5.8335 10.8318V8.83179H4.8335V10.8318H5.8335ZM5.8335 8.83179C5.8335 8.69918 5.88617 8.572 5.97994 8.47823L5.27284 7.77113C4.99153 8.05243 4.8335 8.43396 4.8335 8.83179H5.8335ZM5.97994 8.47823C6.07371 8.38447 6.20089 8.33179 6.3335 8.33179L6.3335 7.33179C5.93567 7.33179 5.55414 7.48982 5.27284 7.77113L5.97994 8.47823ZM11.6308 10.5233C11.9474 10.2236 12.1664 9.83842 12.2555 9.41473L11.2769 9.20899C11.2308 9.42806 11.1164 9.63324 10.9434 9.79694L11.6308 10.5233ZM12.2555 9.41473C12.3446 8.9908 12.2986 8.55169 12.1248 8.15421L11.2086 8.55499C11.2996 8.763 11.3229 8.99016 11.2769 9.20899L12.2555 9.41473ZM12.1248 8.15421C11.951 7.75711 11.6588 7.42216 11.2894 7.18847L10.7548 8.03357C10.961 8.16401 11.1174 8.3466 11.2086 8.55499L12.1248 8.15421ZM11.2894 7.18847C10.9203 6.95495 10.489 6.83179 10.0498 6.83179V7.83179C10.303 7.83179 10.5484 7.90298 10.7548 8.03357L11.2894 7.18847ZM10.0498 6.83179C9.6107 6.83179 9.17938 6.95495 8.81022 7.18847L9.34483 8.03357C9.55128 7.90298 9.79668 7.83179 10.0498 7.83179V6.83179ZM8.81022 7.18847C8.44082 7.42216 8.14862 7.75711 7.97491 8.15421L8.89108 8.55499C8.98224 8.3466 9.13864 8.16401 9.34483 8.03357L8.81022 7.18847ZM7.97491 8.15421C7.80103 8.55169 7.75507 8.9908 7.84419 9.41473L8.8228 9.20899C8.77679 8.99016 8.80008 8.763 8.89108 8.55499L7.97491 8.15421ZM7.84419 9.41473C7.93327 9.83841 8.15228 10.2236 8.4689 10.5233L9.15627 9.79694C8.98329 9.63324 8.86886 9.42806 8.8228 9.20899L7.84419 9.41473ZM8.46878 10.5231L9.70603 11.6948L10.3936 10.9687L9.15639 9.79706L8.46878 10.5231ZM10.3936 11.6948L11.6309 10.5231L10.9433 9.79706L9.70603 10.9687L10.3936 11.6948ZM9.54983 8.98882V8.99297H10.5498V8.98882H9.54983ZM6.3335 8.33179H7.3335V7.33179H6.3335V8.33179ZM8.3335 4.33179H11.3335V3.33179H8.3335V4.33179ZM2.3335 4.33179H5.3335V3.33179H2.3335V4.33179ZM5.3335 4.33179H8.3335V3.33179H5.3335V4.33179Z" fill="#ED5079"/>
</g>
<defs>
<clipPath id="clip0_4814_9496">
<rect width="12" height="12" fill="white" transform="translate(0.833496 0.331787)"/>
</clipPath>
</defs>
</svg>
