<svg width="11" height="11" viewBox="0 0 11 11" fill="none" xmlns="http://www.w3.org/2000/svg">
<g id="truck">
<path id="Vector" d="M4.03846 7.57692C4.03846 8.04424 3.65963 8.42308 3.19231 8.42308C2.72499 8.42308 2.34615 8.04424 2.34615 7.57692M4.03846 7.57692C4.03846 7.1096 3.65963 6.73077 3.19231 6.73077C2.72499 6.73077 2.34615 7.1096 2.34615 7.57692M4.03846 7.57692H6.57692M2.34615 7.57692H1.5V2.92308C1.5 2.81087 1.54457 2.70326 1.62392 2.62392C1.70326 2.54457 1.81087 2.5 1.92308 2.5H5.73077V7.57692M8.26923 7.57692C8.26923 8.04424 7.8904 8.42308 7.42308 8.42308C6.95576 8.42308 6.57692 8.04424 6.57692 7.57692M8.26923 7.57692C8.26923 7.1096 7.8904 6.73077 7.42308 6.73077C6.95576 6.73077 6.57692 7.1096 6.57692 7.57692M8.26923 7.57692H9.11539V5.03846M9.11539 5.03846H5.73077M9.11539 5.03846L7.84615 2.92308H5.73077" stroke="#ED5079" stroke-linecap="round" stroke-linejoin="round"/>
</g>
</svg>
