<svg width="19" height="22" viewBox="0 0 19 22" fill="none" xmlns="http://www.w3.org/2000/svg">
<g id="Mappin">
<path d="M15.2647 8.46154C15.2647 11.7328 12.6129 14.3846 9.34165 14.3846C6.07043 14.3846 3.41857 11.7328 3.41857 8.46154C3.41857 5.19031 6.07043 2.53846 9.34165 2.53846C12.6129 2.53846 15.2647 5.19031 15.2647 8.46154Z" fill="#FFF2F6"/>
<path fill-rule="evenodd" clip-rule="evenodd" d="M2.72599 15.0226C1.74519 13.7499 0.537914 12.2238 0.178814 10.5168C-0.180287 8.80974 0.00406468 7.04035 0.708556 5.43236C1.41305 3.82437 2.60604 2.45001 4.13667 1.48306C5.6673 0.516107 7.46683 0 9.30769 0C11.1486 0 12.9481 0.516107 14.4787 1.48306C16.0093 2.45001 17.2023 3.82437 17.9068 5.43236C18.6113 7.04035 18.7957 8.80974 18.4366 10.5168C18.0775 12.2238 16.8702 13.7499 15.8894 15.0226L9.30769 22L2.72599 15.0226ZM9.34165 14.3846C12.6129 14.3846 15.2647 11.7328 15.2647 8.46154C15.2647 5.19031 12.6129 2.53846 9.34165 2.53846C6.07043 2.53846 3.41857 5.19031 3.41857 8.46154C3.41857 11.7328 6.07043 14.3846 9.34165 14.3846Z" fill="#ED5079"/>
</g>
</svg>
