<svg width="26" height="26" viewBox="0 0 26 26" fill="none" xmlns="http://www.w3.org/2000/svg">
<g id="plug-connected-x">
<path id="Vector" d="M21.6667 17.3333L17.3333 21.6667M3.25 22.75L5.95833 20.0417M20.0417 5.95833L22.75 3.25M10.8333 11.9167L8.66667 14.0833M14.0833 15.1667L11.9167 17.3333M17.3333 17.3333L21.6667 21.6667M7.5834 13L13.0001 18.4167L11.3751 20.0417C11.0215 20.4069 10.5989 20.6981 10.1317 20.8983C9.66448 21.0985 9.16212 21.2037 8.65385 21.2079C8.14558 21.212 7.64157 21.1149 7.1712 20.9223C6.70082 20.7297 6.27347 20.4454 5.91406 20.086C5.55465 19.7266 5.27036 19.2992 5.07775 18.8289C4.88515 18.3585 4.78808 17.8545 4.79221 17.3462C4.79634 16.8379 4.90157 16.3356 5.10179 15.8684C5.30201 15.4012 5.5932 14.9785 5.9584 14.625L7.5834 13ZM18.4167 12.9999L13 7.58326L14.625 5.95826C14.9785 5.59306 15.4012 5.30187 15.8684 5.10166C16.3356 4.90144 16.8379 4.7962 17.3462 4.79208C17.8545 4.78795 18.3585 4.88502 18.8289 5.07762C19.2992 5.27023 19.7266 5.55452 20.086 5.91393C20.4454 6.27334 20.7297 6.70068 20.9223 7.17106C21.1149 7.64144 21.212 8.14545 21.2079 8.65372C21.2037 9.16198 21.0985 9.66435 20.8983 10.1315C20.6981 10.5987 20.4069 11.0214 20.0417 11.3749L18.4167 12.9999Z" stroke="#E67700" stroke-linecap="round" stroke-linejoin="round"/>
</g>
</svg>
