<svg width="64" height="64" viewBox="0 0 64 64" fill="none" xmlns="http://www.w3.org/2000/svg">
<g id="Buildings">
<path id="Vector" d="M8 56H56M8 18.6667V21.3333C8 23.4551 8.84286 25.4899 10.3431 26.9902C11.8434 28.4905 13.8783 29.3333 16 29.3333C18.1217 29.3333 20.1566 28.4905 21.6569 26.9902C23.1571 25.4899 24 23.4551 24 21.3333M8 18.6667H56M8 18.6667L13.3333 8H50.6667L56 18.6667M24 21.3333V18.6667M24 21.3333C24 23.4551 24.8429 25.4899 26.3431 26.9902C27.8434 28.4905 29.8783 29.3333 32 29.3333C34.1217 29.3333 36.1566 28.4905 37.6569 26.9902C39.1571 25.4899 40 23.4551 40 21.3333M40 21.3333V18.6667M40 21.3333C40 23.4551 40.8429 25.4899 42.3431 26.9902C43.8434 28.4905 45.8783 29.3333 48 29.3333C50.1217 29.3333 52.1566 28.4905 53.6569 26.9902C55.1571 25.4899 56 23.4551 56 21.3333V18.6667M13.3333 55.9999V28.9333M50.6667 55.9999V28.9333M24 56V45.3333C24 43.9188 24.5619 42.5623 25.5621 41.5621C26.5623 40.5619 27.9188 40 29.3333 40H34.6667C36.0812 40 37.4377 40.5619 38.4379 41.5621C39.4381 42.5623 40 43.9188 40 45.3333V56" stroke="black" stroke-width="2" stroke-linecap="round" stroke-linejoin="round"/>
</g>
</svg>
