<svg width="24" height="24" viewBox="0 0 24 24" fill="none" xmlns="http://www.w3.org/2000/svg">
<g id="Database">
<rect x="0.25" y="0.25" width="23.5" height="23.5" rx="1.75" fill="#FEF5C7"/>
<rect x="0.25" y="0.25" width="23.5" height="23.5" rx="1.75" stroke="#451C03" stroke-width="0.5"/>
<path id="Vector" d="M20 6C20 7.65685 16.4183 9 12 9C7.58172 9 4 7.65685 4 6M20 6C20 4.34315 16.4183 3 12 3C7.58172 3 4 4.34315 4 6M20 6V12M4 6V12M4 12C4 12.7956 4.84285 13.5587 6.34315 14.1213C7.84344 14.6839 9.87827 15 12 15C13.4165 15 14.7942 14.8591 16 14.5981M4 12V18C4 18.7956 4.84285 19.5587 6.34315 20.1213C7.84344 20.6839 9.87827 21 12 21C13.0383 21 14.0558 20.9243 15 20.7811" stroke="#451C03" stroke-width="1.5" stroke-linecap="round" stroke-linejoin="round"/>
<path id="Vector_2" d="M19 14.4998V17.4998M19 20.4998V20.5098" stroke="black" stroke-width="2" stroke-linecap="round" stroke-linejoin="round"/>
</g>
</svg>
