<svg width="35" height="34" viewBox="0 0 35 34" fill="none" xmlns="http://www.w3.org/2000/svg">
<g id="search-off">
<path id="Vector" d="M7.63856 7.1713C6.7186 8.09313 5.98921 9.18713 5.49204 10.3908C4.99487 11.5945 4.73966 12.8844 4.74097 14.1867C4.74363 16.8169 5.79102 19.3384 7.65273 21.1963C9.51444 23.0543 12.038 24.0965 14.6682 24.0939C17.2984 24.0912 19.8198 23.0438 21.6777 21.1821M23.9217 17.734C24.613 15.944 24.7701 13.992 24.374 12.1146C23.9779 10.2372 23.0457 8.51495 21.6904 7.15677C20.3351 5.79858 18.6148 4.86275 16.7382 4.46275C14.8616 4.06275 12.9093 4.21576 11.1179 4.90322M4.74996 4.25006L30.25 29.7501" stroke="#FA5252" stroke-linecap="round" stroke-linejoin="round"/>
</g>
</svg>
