<svg width="24" height="24" viewBox="0 0 24 24" fill="none" xmlns="http://www.w3.org/2000/svg">
<g id="fridge">
<rect width="24" height="24" rx="4" fill="#FFEC99"/>
<path id="Vector" d="M5 17V19C5 19.5304 5.21071 20.0391 5.58579 20.4142C5.96086 20.7893 6.46957 21 7 21H15M5 17V5C5 4.46957 5.21071 3.96086 5.58579 3.58579C5.96086 3.21071 6.46957 3 7 3H17C17.5304 3 18.0391 3.21071 18.4142 3.58579C18.7893 3.96086 19 4.46957 19 5V10M5 17H12M17 10V11M8 19V20M22 21L19.5 18.5M17 19C18.6569 19 20 17.6569 20 16C20 14.3431 18.6569 13 17 13C15.3431 13 14 14.3431 14 16C14 17.6569 15.3431 19 17 19Z" stroke="#E67700" stroke-linecap="round" stroke-linejoin="round"/>
</g>
</svg>
