<svg width="26" height="26" viewBox="0 0 26 26" fill="none" xmlns="http://www.w3.org/2000/svg">
<g id="ticket">
<path id="Vector" d="M16.75 5.41667C16.75 5.14052 16.5261 4.91667 16.25 4.91667C15.9739 4.91667 15.75 5.14052 15.75 5.41667H16.75ZM15.75 7.58333C15.75 7.85948 15.9739 8.08333 16.25 8.08333C16.5261 8.08333 16.75 7.85948 16.75 7.58333H15.75ZM5.41667 5.41667V4.91667V5.41667ZM20.5833 5.41667V4.91667V5.41667ZM22.75 10.8333V11.3333C23.0261 11.3333 23.25 11.1095 23.25 10.8333H22.75ZM22.75 15.6667C23.0261 15.6667 23.25 15.4428 23.25 15.1667C23.25 14.8905 23.0261 14.6667 22.75 14.6667V15.6667ZM3.25 18.4167H2.75H3.25ZM3.25 15.1667V14.6667C2.97386 14.6667 2.75 14.8905 2.75 15.1667H3.25ZM5.41667 13H5.91667H5.41667ZM3.25 10.8333H2.75C2.75 11.1095 2.97386 11.3333 3.25 11.3333V10.8333ZM14.3595 15.8918L14.0059 16.2453C14.0997 16.3391 14.2269 16.3918 14.3595 16.3918V15.8918ZM16.0072 15.8918V16.3918C16.2833 16.3918 16.5072 16.1679 16.5072 15.8918H16.0072ZM16.0072 14.2441H16.5072C16.5072 14.1115 16.4545 13.9843 16.3607 13.8905L16.0072 14.2441ZM14.0848 12.3217L13.8694 11.8706C13.7229 11.9405 13.6195 12.0772 13.592 12.2372C13.5646 12.3972 13.6165 12.5605 13.7313 12.6753L14.0848 12.3217ZM18.4787 16.7156L18.0275 16.5001C17.9362 16.6913 17.9753 16.9194 18.1252 17.0692L18.4787 16.7156ZM22.1154 20.8349H22.6154H22.1154ZM20.9503 22V22.5V22ZM20.1264 21.6588L20.48 21.3052L20.1264 21.6588ZM16.831 18.3633L17.1846 18.0098C17.0347 17.86 16.8067 17.8208 16.6155 17.9122L16.831 18.3633ZM12.4371 13.9694L12.7907 13.6159C12.6759 13.5011 12.5126 13.4492 12.3526 13.4766C12.1926 13.5041 12.0559 13.6075 11.986 13.754L12.4371 13.9694ZM13 21.0833C13.2761 21.0833 13.5 20.8595 13.5 20.5833C13.5 20.3072 13.2761 20.0833 13 20.0833V21.0833ZM15.75 5.41667V7.58333H16.75V5.41667H15.75ZM5.41667 5.91667H20.5833V4.91667H5.41667V5.91667ZM20.5833 5.91667C21.0254 5.91667 21.4493 6.09226 21.7618 6.40482L22.469 5.69771C21.9689 5.19762 21.2906 4.91667 20.5833 4.91667V5.91667ZM21.7618 6.40482C22.0744 6.71738 22.25 7.14131 22.25 7.58333H23.25C23.25 6.87609 22.969 6.19781 22.469 5.69771L21.7618 6.40482ZM22.25 7.58333V10.8333H23.25V7.58333H22.25ZM22.75 10.3333C22.0428 10.3333 21.3645 10.6143 20.8644 11.1144L21.5715 11.8215C21.8841 11.5089 22.308 11.3333 22.75 11.3333V10.3333ZM20.8644 11.1144C20.3643 11.6145 20.0833 12.2928 20.0833 13H21.0833C21.0833 12.558 21.2589 12.134 21.5715 11.8215L20.8644 11.1144ZM20.0833 13C20.0833 13.7072 20.3643 14.3855 20.8644 14.8856L21.5715 14.1785C21.2589 13.866 21.0833 13.442 21.0833 13H20.0833ZM20.8644 14.8856C21.3645 15.3857 22.0428 15.6667 22.75 15.6667V14.6667C22.308 14.6667 21.8841 14.4911 21.5715 14.1785L20.8644 14.8856ZM5.41667 20.0833C4.97464 20.0833 4.55072 19.9077 4.23816 19.5952L3.53105 20.3023C4.03115 20.8024 4.70942 21.0833 5.41667 21.0833V20.0833ZM4.23816 19.5952C3.92559 19.2826 3.75 18.8587 3.75 18.4167H2.75C2.75 19.1239 3.03095 19.8022 3.53105 20.3023L4.23816 19.5952ZM3.75 18.4167V15.1667H2.75V18.4167H3.75ZM3.25 15.6667C3.95724 15.6667 4.63552 15.3857 5.13562 14.8856L4.42851 14.1785C4.11595 14.4911 3.69203 14.6667 3.25 14.6667V15.6667ZM5.13562 14.8856C5.63572 14.3855 5.91667 13.7072 5.91667 13H4.91667C4.91667 13.442 4.74107 13.866 4.42851 14.1785L5.13562 14.8856ZM5.91667 13C5.91667 12.2928 5.63572 11.6145 5.13562 11.1144L4.42851 11.8215C4.74107 12.1341 4.91667 12.558 4.91667 13H5.91667ZM5.13562 11.1144C4.63552 10.6143 3.95724 10.3333 3.25 10.3333V11.3333C3.69203 11.3333 4.11595 11.5089 4.42851 11.8215L5.13562 11.1144ZM3.75 10.8333V7.58333H2.75V10.8333H3.75ZM3.75 7.58333C3.75 7.14131 3.92559 6.71738 4.23816 6.40482L3.53105 5.69771C3.03095 6.19781 2.75 6.87609 2.75 7.58333H3.75ZM4.23816 6.40482C4.55072 6.09226 4.97464 5.91667 5.41667 5.91667V4.91667C4.70942 4.91667 4.03115 5.19762 3.53105 5.69771L4.23816 6.40482ZM14.3595 16.3918H16.0072V15.3918H14.3595V16.3918ZM16.5072 15.8918V14.2441H15.5072V15.8918H16.5072ZM16.3607 13.8905L14.4384 11.9682L13.7313 12.6753L15.6536 14.5976L16.3607 13.8905ZM14.3003 12.7729C14.822 12.5238 15.408 12.4425 15.9778 12.5403L16.1469 11.5547C15.3733 11.4219 14.5776 11.5323 13.8694 11.8706L14.3003 12.7729ZM15.9778 12.5403C16.5475 12.638 17.0729 12.91 17.4817 13.3188L18.1888 12.6117C17.6338 12.0567 16.9204 11.6874 16.1469 11.5547L15.9778 12.5403ZM17.4817 13.3188C17.8905 13.7275 18.1625 14.253 18.2602 14.8227L19.2458 14.6536C19.1131 13.88 18.7438 13.1666 18.1888 12.6117L17.4817 13.3188ZM18.2602 14.8227C18.358 15.3925 18.2767 15.9785 18.0275 16.5001L18.9299 16.9311C19.2682 16.2229 19.3785 15.4272 19.2458 14.6536L18.2602 14.8227ZM18.1252 17.0692L21.4206 20.3646L22.1277 19.6575L18.8323 16.3621L18.1252 17.0692ZM21.4206 20.3646C21.5453 20.4893 21.6154 20.6585 21.6154 20.8349H22.6154C22.6154 20.3933 22.44 19.9698 22.1277 19.6575L21.4206 20.3646ZM21.6154 20.8349C21.6154 21.0113 21.5453 21.1805 21.4206 21.3052L22.1277 22.0123C22.44 21.7 22.6154 21.2765 22.6154 20.8349H21.6154ZM21.4206 21.3052C21.2959 21.4299 21.1267 21.5 20.9503 21.5V22.5C21.3919 22.5 21.8154 22.3246 22.1277 22.0123L21.4206 21.3052ZM20.9503 21.5C20.7739 21.5 20.6047 21.4299 20.48 21.3052L19.7729 22.0123C20.0852 22.3246 20.5087 22.5 20.9503 22.5V21.5ZM20.48 21.3052L17.1846 18.0098L16.4775 18.7169L19.7729 22.0123L20.48 21.3052ZM16.6155 17.9122C16.0939 18.1613 15.5079 18.2426 14.9381 18.1448L14.769 19.1304C15.5426 19.2631 16.3383 19.1528 17.0465 18.8145L16.6155 17.9122ZM14.9381 18.1448C14.3684 18.0471 13.8429 17.7751 13.4342 17.3663L12.7271 18.0734C13.282 18.6284 13.9954 18.9977 14.769 19.1304L14.9381 18.1448ZM13.4342 17.3663C13.0254 16.9576 12.7534 16.4321 12.6557 15.8624L11.6701 16.0315C11.8028 16.805 12.1721 17.5184 12.7271 18.0734L13.4342 17.3663ZM12.6557 15.8624C12.5579 15.2926 12.6392 14.7066 12.8883 14.1849L11.986 13.754C11.6477 14.4622 11.5373 15.2579 11.6701 16.0315L12.6557 15.8624ZM12.0836 14.323L14.0059 16.2453L14.713 15.5382L12.7907 13.6159L12.0836 14.323ZM13 20.0833H5.41667V21.0833H13V20.0833Z" fill="#E67700"/>
</g>
</svg>
