<svg width="37" height="36" viewBox="0 0 37 36" fill="none" xmlns="http://www.w3.org/2000/svg">
<g id="Solkos Symbol">
<path id="Rectangle 1" d="M22.2184 0H31.3709C34.0668 0 36.2523 2.18546 36.2523 4.88136V36H22.2184V0Z" fill="url(#paint0_linear_8584_22012)"/>
<path id="Rectangle 2" d="M14.2863 36L5.13371 36C2.43781 36 0.252358 33.8145 0.252358 31.1186L0.252361 -1.21657e-06L14.2863 0L14.2863 36Z" fill="url(#paint1_linear_8584_22012)"/>
<path id="Vector 1" d="M22.2184 19.4256V12.1008C25.1291 14.2881 31.4808 19.0288 33.6014 20.4938C35.7221 21.9587 36.2523 23.5458 36.2523 24.1562V29.3445L22.2184 19.4256Z" fill="url(#paint2_linear_8584_22012)"/>
<path id="Vector 3" d="M14.2863 16.5744L14.2863 23.8992C11.3755 21.7119 5.02388 16.9712 2.9032 15.5062C0.782526 14.0413 0.252357 12.4542 0.252357 11.8438L0.252357 6.65547L14.2863 16.5744Z" fill="url(#paint3_linear_8584_22012)"/>
<path id="Vector 2" d="M22.2184 36H36.2523V29.2835L22.2184 19.3613V36Z" fill="url(#paint4_linear_8584_22012)"/>
<path id="Vector 4" d="M14.2863 1.71661e-05L0.252359 1.59496e-05L0.252358 6.71654L14.2863 16.6387L14.2863 1.71661e-05Z" fill="url(#paint5_linear_8584_22012)"/>
</g>
<defs>
<linearGradient id="paint0_linear_8584_22012" x1="22.5235" y1="0.302521" x2="34.9956" y2="36.0659" gradientUnits="userSpaceOnUse">
<stop stop-color="white"/>
<stop offset="0.746234" stop-color="#C9C7C4"/>
</linearGradient>
<linearGradient id="paint1_linear_8584_22012" x1="13.9812" y1="35.6975" x2="1.50908" y2="-0.0658855" gradientUnits="userSpaceOnUse">
<stop stop-color="white"/>
<stop offset="0.746234" stop-color="#C9C7C4"/>
</linearGradient>
<linearGradient id="paint2_linear_8584_22012" x1="22.3743" y1="16.3736" x2="36.1784" y2="27.3447" gradientUnits="userSpaceOnUse">
<stop stop-color="#F9475F"/>
<stop offset="0.64802" stop-color="#F13549"/>
<stop offset="1" stop-color="#A62D45"/>
</linearGradient>
<linearGradient id="paint3_linear_8584_22012" x1="14.1303" y1="19.6264" x2="0.326204" y2="8.65535" gradientUnits="userSpaceOnUse">
<stop offset="0.0863866" stop-color="#A62D45"/>
<stop offset="0.451837" stop-color="#F13549"/>
<stop offset="1" stop-color="#F9475F"/>
</linearGradient>
<linearGradient id="paint4_linear_8584_22012" x1="29.2353" y1="23.1775" x2="29.2353" y2="36" gradientUnits="userSpaceOnUse">
<stop stop-color="#F13549"/>
<stop offset="1" stop-color="#472240"/>
</linearGradient>
<linearGradient id="paint5_linear_8584_22012" x1="7.2693" y1="22.8404" x2="7.26931" y2="1.70082e-05" gradientUnits="userSpaceOnUse">
<stop stop-color="#472240"/>
<stop offset="0.464424" stop-color="#F13549"/>
</linearGradient>
</defs>
</svg>
