<svg width="14" height="14" viewBox="0 0 14 14" fill="none" xmlns="http://www.w3.org/2000/svg">
<g id="star">
<path id="Vector" d="M7.00015 10.3541L7.23324 9.91172C7.0875 9.83492 6.91328 9.83484 6.76747 9.9115L7.00015 10.3541ZM3.39982 12.247L2.90701 12.1624C2.87483 12.35 2.95195 12.5396 3.10592 12.6515C3.2599 12.7634 3.46404 12.7781 3.6325 12.6895L3.39982 12.247ZM4.08756 8.23773L4.58037 8.32226C4.60821 8.15994 4.55434 7.99431 4.43632 7.87944L4.08756 8.23773ZM1.1709 5.39864L1.09918 4.90381C0.910735 4.93112 0.754158 5.0631 0.695345 5.24421C0.636532 5.42532 0.685694 5.62411 0.822142 5.75693L1.1709 5.39864ZM5.1959 4.81531L5.26761 5.31014C5.43054 5.28653 5.57141 5.18422 5.64427 5.03659L5.1959 4.81531ZM6.99607 1.16772L7.44443 0.946444C7.36021 0.775775 7.18639 0.667725 6.99607 0.667725C6.80574 0.667725 6.63193 0.775775 6.5477 0.946444L6.99607 1.16772ZM8.79623 4.81531L8.34786 5.03659C8.42072 5.18422 8.56159 5.28653 8.72452 5.31014L8.79623 4.81531ZM12.8212 5.39864L13.17 5.75693C13.3064 5.62411 13.3556 5.42532 13.2968 5.24421C13.238 5.0631 13.0814 4.93112 12.8929 4.90381L12.8212 5.39864ZM9.90456 8.23773L9.55581 7.87944C9.43779 7.99431 9.38392 8.15994 9.41176 8.32226L9.90456 8.23773ZM10.5923 12.247L10.3592 12.6893C10.5277 12.7781 10.7319 12.7635 10.886 12.6516C11.0401 12.5398 11.1173 12.3501 11.0851 12.1624L10.5923 12.247ZM6.76747 9.9115L3.16713 11.8044L3.6325 12.6895L7.23283 10.7966L6.76747 9.9115ZM3.89262 12.3315L4.58037 8.32226L3.59476 8.15319L2.90701 12.1624L3.89262 12.3315ZM4.43632 7.87944L1.51965 5.04036L0.822142 5.75693L3.73881 8.59601L4.43632 7.87944ZM1.24261 5.89347L5.26761 5.31014L5.12418 4.32048L1.09918 4.90381L1.24261 5.89347ZM5.64427 5.03659L7.44443 1.38901L6.5477 0.946444L4.74753 4.59403L5.64427 5.03659ZM6.5477 1.38901L8.34786 5.03659L9.2446 4.59403L7.44443 0.946444L6.5477 1.38901ZM8.72452 5.31014L12.7495 5.89347L12.8929 4.90381L8.86795 4.32048L8.72452 5.31014ZM12.4725 5.04036L9.55581 7.87944L10.2533 8.59601L13.17 5.75693L12.4725 5.04036ZM9.41176 8.32226L10.0995 12.3315L11.0851 12.1624L10.3974 8.15319L9.41176 8.32226ZM10.8254 11.8046L7.23324 9.91172L6.76705 10.7964L10.3592 12.6893L10.8254 11.8046Z" fill="black"/>
</g>
</svg>
