<svg width="24" height="24" viewBox="0 0 24 24" fill="none" xmlns="http://www.w3.org/2000/svg">
<g id="Devices">
<rect width="24" height="24" rx="2" fill="#ADBACC"/>
<path id="Vector" d="M3.5021 6.5207C3.18061 6.8541 3 7.30628 3 7.77778V18.4444V20.2222C3 20.6937 3.18061 21.1459 3.5021 21.4793C3.82359 21.8127 4.25963 22 4.71429 22H13.2857C13.7404 22 14.1764 21.8127 14.4979 21.4793C14.8194 21.1459 15 20.6937 15 20.2222V7.77778C15 7.30628 14.8194 6.8541 14.4979 6.5207C14.1764 6.1873 13.7404 6 13.2857 6H4.71429C4.25963 6 3.82359 6.1873 3.5021 6.5207Z" stroke="#313A49" stroke-width="1.5" stroke-linecap="round" stroke-linejoin="round"/>
<path id="Vector_2" d="M15 19H19.2857C19.7404 19 20.1764 18.8127 20.4979 18.4793C20.8194 18.1459 21 17.6937 21 17.2222V4.77778C21 4.30628 20.8194 3.8541 20.4979 3.5207C20.1764 3.1873 19.7404 3 19.2857 3H10.7143C10.2596 3 9.82359 3.1873 9.5021 3.5207C9.18061 3.8541 9 4.30628 9 4.77778V6" stroke="#313A49" stroke-width="1.5" stroke-linecap="round" stroke-linejoin="round"/>
<path id="Vector_3" d="M3 18H15" stroke="#313A49" stroke-width="1.5" stroke-linecap="round" stroke-linejoin="round"/>
<path id="Vector_4" d="M21 15H15" stroke="#313A49" stroke-width="1.5" stroke-linecap="round" stroke-linejoin="round"/>
<path id="Vector_5" d="M12 20V20.9M13 12V12.9" stroke="#313A49" stroke-width="1.5" stroke-linecap="round" stroke-linejoin="round"/>
<path id="Vector_6" d="M18 17V17.9M19 9V9.9" stroke="#313A49" stroke-width="1.5" stroke-linecap="round" stroke-linejoin="round"/>
<path id="Vector_7" d="M6 20V21" stroke="#313A49" stroke-width="1.5" stroke-linecap="round" stroke-linejoin="round"/>
</g>
</svg>
