<svg width="18" height="18" viewBox="0 0 18 18" fill="none" xmlns="http://www.w3.org/2000/svg">
<g id="building-store">
<path id="Vector" d="M2.25 15.75H15.75M2.25 5.25V6C2.25 6.59674 2.48705 7.16903 2.90901 7.59099C3.33097 8.01295 3.90326 8.25 4.5 8.25C5.09674 8.25 5.66903 8.01295 6.09099 7.59099C6.51295 7.16903 6.75 6.59674 6.75 6M2.25 5.25H15.75M2.25 5.25L3.75 2.25H14.25L15.75 5.25M6.75 6V5.25M6.75 6C6.75 6.59674 6.98705 7.16903 7.40901 7.59099C7.83097 8.01295 8.40326 8.25 9 8.25C9.59674 8.25 10.169 8.01295 10.591 7.59099C11.0129 7.16903 11.25 6.59674 11.25 6M11.25 6V5.25M11.25 6C11.25 6.59674 11.4871 7.16903 11.909 7.59099C12.331 8.01295 12.9033 8.25 13.5 8.25C14.0967 8.25 14.669 8.01295 15.091 7.59099C15.5129 7.16903 15.75 6.59674 15.75 6V5.25M3.75 15.75V8.13748M14.25 15.75V8.13748M6.75 15.75V12.75C6.75 12.3522 6.90804 11.9706 7.18934 11.6893C7.47064 11.408 7.85218 11.25 8.25 11.25H9.75C10.1478 11.25 10.5294 11.408 10.8107 11.6893C11.092 11.9706 11.25 12.3522 11.25 12.75V15.75" stroke="black" stroke-linecap="round" stroke-linejoin="round"/>
</g>
</svg>
