<svg width="26" height="26" viewBox="0 0 26 26" fill="none" xmlns="http://www.w3.org/2000/svg">
<g id="temperature-up">
<path id="Vector" d="M13 5.41667C13 4.84203 12.7717 4.29093 12.3654 3.8846C11.9591 3.47827 11.408 3.25 10.8333 3.25C10.2587 3.25 9.7076 3.47827 9.30127 3.8846C8.89494 4.29093 8.66667 4.84203 8.66667 5.41667V14.625C7.84055 15.102 7.1949 15.8382 6.82986 16.7195C6.46481 17.6008 6.40076 18.5779 6.64766 19.4993C6.89455 20.4207 7.43858 21.2349 8.19537 21.8156C8.95216 22.3963 9.87942 22.7111 10.8333 22.7111C11.7873 22.7111 12.7145 22.3963 13.4713 21.8156C14.2281 21.2349 14.7721 20.4207 15.019 19.4993C15.2659 18.5779 15.2019 17.6008 14.8368 16.7195C14.4718 15.8382 13.8261 15.102 13 14.625V13M16.25 12.4583V5.95833M16.25 5.95833L19.5 9.20833M16.25 5.95833L13 9.20833" stroke="#FA5252" stroke-linecap="round" stroke-linejoin="round"/>
</g>
</svg>
