<svg width="26" height="26" viewBox="0 0 26 26" fill="none" xmlns="http://www.w3.org/2000/svg">
<g id="tool">
<path id="Vector" d="M7.58344 10.8333H10.8334V7.58331L7.04177 3.79164C8.25471 3.21235 9.6174 3.02335 10.9422 3.25065C12.267 3.47795 13.4888 4.11038 14.4392 5.06085C15.3897 6.01131 16.0221 7.23307 16.2494 8.55788C16.4767 9.88268 16.2877 11.2454 15.7084 12.4583L22.2084 18.9583C22.6394 19.3893 22.8815 19.9738 22.8815 20.5833C22.8815 21.1928 22.6394 21.7773 22.2084 22.2083C21.7775 22.6393 21.1929 22.8814 20.5834 22.8814C19.9739 22.8814 19.3894 22.6393 18.9584 22.2083L12.4584 15.7083C11.2455 16.2876 9.88281 16.4766 8.55801 16.2493C7.2332 16.022 6.01144 15.3896 5.06098 14.4391C4.11051 13.4886 3.47808 12.2669 3.25078 10.9421C3.02348 9.61727 3.21249 8.25457 3.79177 7.04164L7.58344 10.8333Z" stroke="#E67700" stroke-linecap="round" stroke-linejoin="round"/>
</g>
</svg>
