<svg width="27" height="26" viewBox="0 0 27 26" fill="none" xmlns="http://www.w3.org/2000/svg">
<g id="tool">
<path id="Vector" d="M8.0835 10.8333H11.3335V7.58331L7.54183 3.79164C8.75477 3.21235 10.1175 3.02335 11.4423 3.25065C12.7671 3.47795 13.9888 4.11038 14.9393 5.06084C15.8898 6.01131 16.5222 7.23307 16.7495 8.55788C16.9768 9.88268 16.7878 11.2454 16.2085 12.4583L22.7085 18.9583C23.1395 19.3893 23.3816 19.9738 23.3816 20.5833C23.3816 21.1928 23.1395 21.7773 22.7085 22.2083C22.2775 22.6393 21.693 22.8814 21.0835 22.8814C20.474 22.8814 19.8895 22.6393 19.4585 22.2083L12.9585 15.7083C11.7456 16.2876 10.3829 16.4766 9.05807 16.2493C7.73326 16.022 6.51151 15.3896 5.56104 14.4391C4.61057 13.4886 3.97814 12.2669 3.75084 10.9421C3.52354 9.61727 3.71255 8.25457 4.29183 7.04164L8.0835 10.8333Z" stroke="#313A49" stroke-linecap="round" stroke-linejoin="round"/>
</g>
</svg>
