<svg width="13" height="13" viewBox="0 0 13 13" fill="none" xmlns="http://www.w3.org/2000/svg">
<g id="fridge">
<path id="Vector" d="M10.2246 3.16821C10.2246 2.903 10.1193 2.64864 9.93172 2.46111C9.74418 2.27357 9.48983 2.16821 9.22461 2.16821H4.22461C3.95939 2.16821 3.70504 2.27357 3.5175 2.46111C3.32997 2.64864 3.22461 2.903 3.22461 3.16821V9.16821M10.2246 3.16821V10.1682M10.2246 3.16821V9.16821M10.2246 10.1682C10.2246 10.4334 10.1193 10.6878 9.93172 10.8753C9.74418 11.0629 9.48983 11.1682 9.22461 11.1682H4.22461C3.95939 11.1682 3.70504 11.0629 3.5175 10.8753C3.32997 10.6878 3.22461 10.4334 3.22461 10.1682V9.16821M10.2246 10.1682V9.16821M3.22461 9.16821H10.2246M8.72461 10.1682V10.6682M9.22461 5.66821V6.16821M4.72461 10.1682V10.6682" stroke="#ED5079" stroke-linecap="round" stroke-linejoin="round"/>
</g>
</svg>
