<svg width="34" height="34" viewBox="0 0 34 34" fill="none" xmlns="http://www.w3.org/2000/svg">
<g id="user-check">
<path id="Vector" d="M3.75 29.75C3.75 30.0261 3.97386 30.25 4.25 30.25C4.52614 30.25 4.75 30.0261 4.75 29.75H3.75ZM9.91667 21.25V20.75V21.25ZM15.5833 21.25V20.75V21.25ZM21.25 26.9167H21.75H21.25ZM20.75 29.75C20.75 30.0261 20.9739 30.25 21.25 30.25C21.5261 30.25 21.75 30.0261 21.75 29.75H20.75ZM23.0202 15.2298C22.825 15.0345 22.5084 15.0345 22.3131 15.2298C22.1179 15.425 22.1179 15.7416 22.3131 15.9369L23.0202 15.2298ZM25.5 18.4167L25.1464 18.7702C25.3417 18.9655 25.6583 18.9655 25.8536 18.7702L25.5 18.4167ZM31.5202 13.1036C31.7155 12.9083 31.7155 12.5917 31.5202 12.3964C31.325 12.2012 31.0084 12.2012 30.8131 12.3964L31.5202 13.1036ZM17.9167 9.91667C17.9167 12.7701 15.6035 15.0833 12.75 15.0833V16.0833C16.1558 16.0833 18.9167 13.3224 18.9167 9.91667H17.9167ZM12.75 15.0833C9.89653 15.0833 7.58333 12.7701 7.58333 9.91667H6.58333C6.58333 13.3224 9.34424 16.0833 12.75 16.0833V15.0833ZM7.58333 9.91667C7.58333 7.0632 9.89653 4.75 12.75 4.75V3.75C9.34424 3.75 6.58333 6.51091 6.58333 9.91667H7.58333ZM12.75 4.75C15.6035 4.75 17.9167 7.0632 17.9167 9.91667H18.9167C18.9167 6.51091 16.1558 3.75 12.75 3.75V4.75ZM4.75 29.75V26.9167H3.75V29.75H4.75ZM4.75 26.9167C4.75 25.5464 5.29434 24.2322 6.26328 23.2633L5.55617 22.5562C4.3997 23.7126 3.75 25.2812 3.75 26.9167H4.75ZM6.26328 23.2633C7.23222 22.2943 8.54638 21.75 9.91667 21.75V20.75C8.28116 20.75 6.71265 21.3997 5.55617 22.5562L6.26328 23.2633ZM9.91667 21.75H15.5833V20.75H9.91667V21.75ZM15.5833 21.75C16.9536 21.75 18.2678 22.2943 19.2367 23.2633L19.9438 22.5562C18.7874 21.3997 17.2188 20.75 15.5833 20.75L15.5833 21.75ZM19.2367 23.2633C20.2057 24.2322 20.75 25.5464 20.75 26.9167H21.75C21.75 25.2812 21.1003 23.7126 19.9438 22.5562L19.2367 23.2633ZM20.75 26.9167V29.75H21.75V26.9167H20.75ZM22.3131 15.9369L25.1464 18.7702L25.8536 18.0631L23.0202 15.2298L22.3131 15.9369ZM25.8536 18.7702L31.5202 13.1036L30.8131 12.3964L25.1464 18.0631L25.8536 18.7702Z" fill="#2393F4"/>
</g>
</svg>
