<svg width="26" height="26" viewBox="0 0 26 26" fill="none" xmlns="http://www.w3.org/2000/svg">
<g id="building-store">
<path id="Vector" d="M3.25 22.25C2.97386 22.25 2.75 22.4739 2.75 22.75C2.75 23.0261 2.97386 23.25 3.25 23.25V22.25ZM3.25 7.58333L2.80279 7.35973C2.76807 7.42915 2.75 7.50571 2.75 7.58333H3.25ZM3.25 8.66667H2.75H3.25ZM10.25 7.58333C10.25 7.30719 10.0261 7.08333 9.75 7.08333C9.47386 7.08333 9.25 7.30719 9.25 7.58333H10.25ZM16.75 7.58333C16.75 7.30719 16.5261 7.08333 16.25 7.08333C15.9739 7.08333 15.75 7.30719 15.75 7.58333H16.75ZM22.75 8.66667H23.25H22.75ZM22.75 7.58333H23.25C23.25 7.50571 23.2319 7.42915 23.1972 7.35973L22.75 7.58333ZM5.41667 3.25V2.75C5.22728 2.75 5.05415 2.857 4.96945 3.02639L5.41667 3.25ZM20.5833 3.25L21.0305 3.02639C20.9459 2.857 20.7727 2.75 20.5833 2.75V3.25ZM4.91667 22.75C4.91667 23.0261 5.14052 23.25 5.41667 23.25C5.69281 23.25 5.91667 23.0261 5.91667 22.75H4.91667ZM5.91667 11.7541C5.91667 11.478 5.69281 11.2541 5.41667 11.2541C5.14052 11.2541 4.91667 11.478 4.91667 11.7541H5.91667ZM9.25 22.75C9.25 23.0261 9.47386 23.25 9.75 23.25C10.0261 23.25 10.25 23.0261 10.25 22.75H9.25ZM11.9167 16.25V16.75V16.25ZM15.75 22.75C15.75 23.0261 15.9739 23.25 16.25 23.25C16.5261 23.25 16.75 23.0261 16.75 22.75H15.75ZM17 23.25C17.2761 23.25 17.5 23.0261 17.5 22.75C17.5 22.4739 17.2761 22.25 17 22.25V23.25ZM20.5 22C20.5 22.2761 20.7239 22.5 21 22.5C21.2761 22.5 21.5 22.2761 21.5 22H20.5ZM21 17L21.3536 16.6464C21.1583 16.4512 20.8417 16.4512 20.6464 16.6464L21 17ZM18.6464 18.6464C18.4512 18.8417 18.4512 19.1583 18.6464 19.3536C18.8417 19.5488 19.1583 19.5488 19.3536 19.3536L18.6464 18.6464ZM22.6464 19.3536C22.8417 19.5488 23.1583 19.5488 23.3536 19.3536C23.5488 19.1583 23.5488 18.8417 23.3536 18.6464L22.6464 19.3536ZM20.5 14C20.5 14.2761 20.7239 14.5 21 14.5C21.2761 14.5 21.5 14.2761 21.5 14H20.5ZM2.75 7.58333V8.66667H3.75V7.58333H2.75ZM2.75 8.66667C2.75 9.66123 3.14509 10.6151 3.84835 11.3183L4.55546 10.6112C4.03973 10.0955 3.75 9.39601 3.75 8.66667H2.75ZM3.84835 11.3183C4.55161 12.0216 5.50544 12.4167 6.5 12.4167V11.4167C5.77065 11.4167 5.07118 11.1269 4.55546 10.6112L3.84835 11.3183ZM6.5 12.4167C7.49456 12.4167 8.44839 12.0216 9.15165 11.3183L8.44454 10.6112C7.92882 11.1269 7.22935 11.4167 6.5 11.4167V12.4167ZM9.15165 11.3183C9.85491 10.6151 10.25 9.66123 10.25 8.66667H9.25C9.25 9.39601 8.96027 10.0955 8.44454 10.6112L9.15165 11.3183ZM10.25 8.66667V7.58333H9.25V8.66667H10.25ZM9.25 8.66667C9.25 9.66123 9.64509 10.6151 10.3483 11.3183L11.0555 10.6112C10.5397 10.0955 10.25 9.39601 10.25 8.66667H9.25ZM10.3483 11.3183C11.0516 12.0216 12.0054 12.4167 13 12.4167V11.4167C12.2707 11.4167 11.5712 11.1269 11.0555 10.6112L10.3483 11.3183ZM13 12.4167C13.9946 12.4167 14.9484 12.0216 15.6517 11.3183L14.9445 10.6112C14.4288 11.1269 13.7293 11.4167 13 11.4167V12.4167ZM15.6517 11.3183C16.3549 10.6151 16.75 9.66123 16.75 8.66667H15.75C15.75 9.39601 15.4603 10.0955 14.9445 10.6112L15.6517 11.3183ZM16.75 8.66667V7.58333H15.75V8.66667H16.75ZM15.75 8.66667C15.75 9.66123 16.1451 10.6151 16.8483 11.3183L17.5555 10.6112C17.0397 10.0955 16.75 9.39601 16.75 8.66667H15.75ZM16.8483 11.3183C17.5516 12.0216 18.5054 12.4167 19.5 12.4167V11.4167C18.7707 11.4167 18.0712 11.1269 17.5555 10.6112L16.8483 11.3183ZM22.1517 11.3183C22.8549 10.6151 23.25 9.66123 23.25 8.66667H22.25C22.25 9.39601 21.9603 10.0955 21.4445 10.6112L22.1517 11.3183ZM23.25 8.66667V7.58333H22.25V8.66667H23.25ZM22.75 7.08333H3.25V8.08333H22.75V7.08333ZM3.69721 7.80694L5.86388 3.47361L4.96945 3.02639L2.80279 7.35973L3.69721 7.80694ZM5.41667 3.75H20.5833V2.75H5.41667V3.75ZM20.1361 3.47361L22.3028 7.80694L23.1972 7.35973L21.0305 3.02639L20.1361 3.47361ZM5.91667 22.75V11.7541H4.91667V22.75H5.91667ZM10.25 22.75V18.4167H9.25V22.75H10.25ZM10.25 18.4167C10.25 17.9746 10.4256 17.5507 10.7382 17.2382L10.031 16.531C9.53095 17.0311 9.25 17.7094 9.25 18.4167H10.25ZM10.7382 17.2382C11.0507 16.9256 11.4746 16.75 11.9167 16.75V15.75C11.2094 15.75 10.5311 16.031 10.031 16.531L10.7382 17.2382ZM11.9167 16.75H14.0833V15.75H11.9167V16.75ZM14.0833 16.75C14.5254 16.75 14.9493 16.9256 15.2618 17.2382L15.969 16.531C15.4689 16.031 14.7906 15.75 14.0833 15.75V16.75ZM15.2618 17.2382C15.5744 17.5507 15.75 17.9746 15.75 18.4167H16.75C16.75 17.7094 16.469 17.0311 15.969 16.531L15.2618 17.2382ZM15.75 18.4167V22.75H16.75V18.4167H15.75ZM3.25 23.25H17V22.25H3.25V23.25ZM21.5 22V17H20.5V22H21.5ZM19.3536 19.3536L21.3536 17.3536L20.6464 16.6464L18.6464 18.6464L19.3536 19.3536ZM20.6464 17.3536L22.6464 19.3536L23.3536 18.6464L21.3536 16.6464L20.6464 17.3536ZM19.5 12.4167C20.1082 12.4167 20.7011 12.2689 21.2308 11.9934L20.7692 11.1062C20.3808 11.3084 19.946 11.4167 19.5 11.4167V12.4167ZM21.2308 11.9934C21.5673 11.8183 21.8784 11.5915 22.1517 11.3183L21.4445 10.6112C21.2442 10.8116 21.0161 10.9778 20.7692 11.1062L21.2308 11.9934ZM20.5 11.5498V14H21.5V11.5498H20.5Z" fill="#C92A2A"/>
</g>
</svg>
