<svg width="26" height="26" viewBox="0 0 26 26" fill="none" xmlns="http://www.w3.org/2000/svg">
<g id="x">
<path id="Vector" d="M19.8536 6.85355C20.0488 6.65829 20.0488 6.34171 19.8536 6.14645C19.6583 5.95118 19.3417 5.95118 19.1464 6.14645L19.8536 6.85355ZM6.14645 19.1464C5.95118 19.3417 5.95118 19.6583 6.14645 19.8536C6.34171 20.0488 6.65829 20.0488 6.85355 19.8536L6.14645 19.1464ZM6.85355 6.14645C6.65829 5.95118 6.34171 5.95118 6.14645 6.14645C5.95118 6.34171 5.95118 6.65829 6.14645 6.85355L6.85355 6.14645ZM19.1464 19.8536C19.3417 20.0488 19.6583 20.0488 19.8536 19.8536C20.0488 19.6583 20.0488 19.3417 19.8536 19.1464L19.1464 19.8536ZM19.1464 6.14645L6.14645 19.1464L6.85355 19.8536L19.8536 6.85355L19.1464 6.14645ZM6.14645 6.85355L19.1464 19.8536L19.8536 19.1464L6.85355 6.14645L6.14645 6.85355Z" fill="#FA5252"/>
</g>
</svg>
