<svg width="26" height="26" viewBox="0 0 26 26" fill="none" xmlns="http://www.w3.org/2000/svg">
<g id="gauge">
<path id="Vector" d="M14.1739 11.1189C13.9787 11.3142 13.9787 11.6308 14.1739 11.8261C14.3692 12.0213 14.6858 12.0213 14.881 11.8261L14.1739 11.1189ZM17.6869 9.02022C17.8821 8.82496 17.8821 8.50838 17.6869 8.31311C17.4916 8.11785 17.175 8.11785 16.9798 8.31311L17.6869 9.02022ZM7.08333 13C7.08333 13.2761 7.30719 13.5 7.58333 13.5C7.85948 13.5 8.08333 13.2761 8.08333 13H7.08333ZM13 8.08333C13.2761 8.08333 13.5 7.85948 13.5 7.58333C13.5 7.30719 13.2761 7.08333 13 7.08333V8.08333ZM22.25 13C22.25 18.1086 18.1086 22.25 13 22.25V23.25C18.6609 23.25 23.25 18.6609 23.25 13H22.25ZM13 22.25C7.89137 22.25 3.75 18.1086 3.75 13H2.75C2.75 18.6609 7.33908 23.25 13 23.25V22.25ZM3.75 13C3.75 7.89137 7.89137 3.75 13 3.75V2.75C7.33908 2.75 2.75 7.33908 2.75 13H3.75ZM13 3.75C18.1086 3.75 22.25 7.89137 22.25 13H23.25C23.25 7.33908 18.6609 2.75 13 2.75V3.75ZM13.5833 13C13.5833 13.3222 13.3222 13.5833 13 13.5833V14.5833C13.8745 14.5833 14.5833 13.8745 14.5833 13H13.5833ZM13 13.5833C12.6778 13.5833 12.4167 13.3222 12.4167 13H11.4167C11.4167 13.8745 12.1255 14.5833 13 14.5833V13.5833ZM12.4167 13C12.4167 12.6778 12.6778 12.4167 13 12.4167V11.4167C12.1255 11.4167 11.4167 12.1255 11.4167 13H12.4167ZM13 12.4167C13.3222 12.4167 13.5833 12.6778 13.5833 13H14.5833C14.5833 12.1255 13.8745 11.4167 13 11.4167V12.4167ZM14.881 11.8261L17.6869 9.02022L16.9798 8.31311L14.1739 11.1189L14.881 11.8261ZM8.08333 13C8.08333 11.696 8.60134 10.4454 9.52339 9.52339L8.81629 8.81629C7.70669 9.92588 7.08333 11.4308 7.08333 13H8.08333ZM9.52339 9.52339C10.4454 8.60134 11.696 8.08333 13 8.08333V7.08333C11.4308 7.08333 9.92588 7.70669 8.81629 8.81629L9.52339 9.52339Z" fill="#313A49"/>
</g>
</svg>
