<svg width="14" height="14" viewBox="0 0 14 14" fill="none" xmlns="http://www.w3.org/2000/svg">
<g id="map">
<path id="Vector" d="M1.75 4.08333L1.52639 3.63611C1.357 3.72081 1.25 3.89394 1.25 4.08333H1.75ZM5.25 2.33333L5.47361 1.88611C5.33284 1.81573 5.16716 1.81573 5.02639 1.88611L5.25 2.33333ZM12.25 2.33333H12.75C12.75 2.16004 12.6603 1.99911 12.5129 1.908C12.3655 1.8169 12.1814 1.80862 12.0264 1.88611L12.25 2.33333ZM12.25 9.91666L12.4736 10.3639C12.643 10.2792 12.75 10.106 12.75 9.91666H12.25ZM8.75 11.6667L8.52639 12.1139C8.66716 12.1843 8.83284 12.1843 8.97361 12.1139L8.75 11.6667ZM1.75 11.6667H1.25C1.25 11.84 1.33973 12.0009 1.48713 12.092C1.63454 12.1831 1.81861 12.1914 1.97361 12.1139L1.75 11.6667ZM1.97361 4.53054L5.47361 2.78054L5.02639 1.88611L1.52639 3.63611L1.97361 4.53054ZM5.02639 2.78054L8.52639 4.53054L8.97361 3.63611L5.47361 1.88611L5.02639 2.78054ZM8.97361 4.53054L12.4736 2.78054L12.0264 1.88611L8.52639 3.63611L8.97361 4.53054ZM11.75 2.33333V9.91666H12.75V2.33333H11.75ZM12.0264 9.46945L8.52639 11.2194L8.97361 12.1139L12.4736 10.3639L12.0264 9.46945ZM8.97361 11.2194L5.47361 9.46945L5.02639 10.3639L8.52639 12.1139L8.97361 11.2194ZM5.02639 9.46945L1.52639 11.2194L1.97361 12.1139L5.47361 10.3639L5.02639 9.46945ZM2.25 11.6667V4.08333H1.25V11.6667H2.25ZM4.75 2.33333V9.91666H5.75V2.33333H4.75ZM8.25 4.08333V11.6667H9.25V4.08333H8.25Z" fill="white"/>
</g>
</svg>
