<svg width="32" height="32" viewBox="0 0 32 32" fill="none" xmlns="http://www.w3.org/2000/svg">
<g id="brand-coolview">
<path id="Vector" d="M26.6666 15.9999L5.33329 15.9999M9.33329 12.4761C13.7777 12.4761 13.037 8.66659 16 8.66659C18.9629 8.66659 18.2222 12.4761 22.6666 12.4761M9.99996 21.9999L9.99996 23.9999M14 19.3333L14 23.9999M18 20.9523L18 23.9999M22 22.6666L22 23.9999M26.6666 7.99992L26.6666 23.9999C26.6666 25.4727 25.4727 26.6666 24 26.6666L7.99996 26.6666C6.5272 26.6666 5.33329 25.4727 5.33329 23.9999L5.33329 7.99992C5.33329 6.52716 6.5272 5.33325 7.99996 5.33325L24 5.33325C25.4727 5.33325 26.6666 6.52716 26.6666 7.99992Z" stroke="black" stroke-width="1.5" stroke-linecap="square" stroke-linejoin="round"/>
</g>
</svg>
