<svg width="14" height="14" viewBox="0 0 14 14" fill="none" xmlns="http://www.w3.org/2000/svg">
<g id="layout-bottombar-expand">
<path id="Vector" d="M11.6668 8.74998H2.3335M8.16683 5.83331L7.00016 4.66665L5.8335 5.83331M11.6668 3.49998V10.5C11.6668 10.8094 11.5439 11.1061 11.3251 11.3249C11.1063 11.5437 10.8096 11.6666 10.5002 11.6666H3.50016C3.19074 11.6666 2.894 11.5437 2.6752 11.3249C2.45641 11.1061 2.3335 10.8094 2.3335 10.5V3.49998C2.3335 3.19056 2.45641 2.89381 2.6752 2.67502C2.894 2.45623 3.19074 2.33331 3.50016 2.33331H10.5002C10.8096 2.33331 11.1063 2.45623 11.3251 2.67502C11.5439 2.89381 11.6668 3.19056 11.6668 3.49998Z" stroke="#2393F4" stroke-linecap="round" stroke-linejoin="round"/>
</g>
</svg>
