<svg width="256" height="64" viewBox="0 0 256 64" fill="none" xmlns="http://www.w3.org/2000/svg">
<g id="Frame 52">
<rect width="256" height="64" fill="white"/>
<path id="Vector" d="M64 32L48 32M51 29.3571C54.3333 29.3571 53.7778 26.5 56 26.5C58.2222 26.5 57.6667 29.3571 61 29.3571M51.5 36.5L51.5 38M54.5 34.5L54.5 38M57.5 35.7143L57.5 38M60.5 37L60.5 38M64 26L64 38C64 39.1046 63.1046 40 62 40L50 40C48.8954 40 48 39.1046 48 38L48 26C48 24.8954 48.8954 24 50 24L62 24C63.1046 24 64 24.8954 64 26Z" stroke="black" stroke-width="2" stroke-linecap="square" stroke-linejoin="round"/>
<g id="coolview">
<path id="Vector_2" d="M164.592 39.3939L160.082 23.967H164.032L166.707 35.0706L169.817 23.967H174.234L177.344 35.0706L180.05 23.967H184L179.459 39.3939H175.322L172.025 27.8548L168.729 39.3939H164.592Z" fill="black"/>
<path id="Vector_3" d="M152.338 39.767C150.783 39.767 149.404 39.4353 148.201 38.7717C146.999 38.1082 146.055 37.1752 145.371 35.9725C144.687 34.7699 144.345 33.3807 144.345 31.8048C144.345 30.2082 144.676 28.7879 145.34 27.5438C146.024 26.2997 146.957 25.3355 148.139 24.6512C149.342 23.9462 150.752 23.5938 152.369 23.5938C153.883 23.5938 155.22 23.9255 156.381 24.589C157.543 25.2525 158.445 26.1649 159.087 27.326C159.751 28.4665 160.083 29.7417 160.083 31.1516C160.083 31.3797 160.072 31.6182 160.051 31.867C160.051 32.1158 160.041 32.375 160.02 32.6446H148.295C148.378 33.8472 148.792 34.7906 149.539 35.4749C150.306 36.1591 151.229 36.5013 152.307 36.5013C153.116 36.5013 153.789 36.325 154.329 35.9725C154.888 35.5993 155.303 35.1224 155.573 34.5418H159.616C159.326 35.5164 158.838 36.408 158.154 37.2166C157.491 38.0045 156.661 38.6266 155.666 39.0828C154.691 39.5389 153.582 39.767 152.338 39.767ZM152.369 26.8284C151.395 26.8284 150.534 27.1083 149.788 27.6682C149.041 28.2073 148.564 29.0367 148.357 30.1564H156.039C155.977 29.1404 155.604 28.3317 154.92 27.7304C154.235 27.1291 153.385 26.8284 152.369 26.8284Z" fill="black"/>
<path id="Vector_4" d="M141.857 21.5721C141.131 21.5721 140.53 21.3543 140.053 20.9189C139.597 20.4835 139.369 19.934 139.369 19.2705C139.369 18.607 139.597 18.0679 140.053 17.6532C140.53 17.2177 141.131 17 141.857 17C142.583 17 143.174 17.2177 143.63 17.6532C144.107 18.0679 144.345 18.607 144.345 19.2705C144.345 19.934 144.107 20.4835 143.63 20.9189C143.174 21.3543 142.583 21.5721 141.857 21.5721ZM139.867 39.3938V23.9669H143.848V39.3938H139.867Z" fill="black"/>
<path id="Vector_5" d="M128.855 39.3939L123.194 23.967H127.362L131.281 35.6305L135.2 23.967H139.367L133.676 39.3939H128.855Z" fill="black"/>
<path id="Vector_6" d="M119.212 39.3938V17H123.194V39.3938H119.212Z" fill="black"/>
<path id="Vector_7" d="M111.314 39.767C109.821 39.767 108.473 39.4249 107.27 38.7406C106.088 38.0564 105.145 37.1129 104.44 35.9103C103.756 34.687 103.414 33.277 103.414 31.6804C103.414 30.0838 103.766 28.6842 104.471 27.4816C105.176 26.2582 106.119 25.3044 107.301 24.6201C108.504 23.9359 109.852 23.5938 111.345 23.5938C112.817 23.5938 114.144 23.9359 115.326 24.6201C116.528 25.3044 117.472 26.2582 118.156 27.4816C118.861 28.6842 119.214 30.0838 119.214 31.6804C119.214 33.277 118.861 34.687 118.156 35.9103C117.472 37.1129 116.528 38.0564 115.326 38.7406C114.123 39.4249 112.786 39.767 111.314 39.767ZM111.314 36.3147C112.35 36.3147 113.252 35.9311 114.02 35.1639C114.787 34.3759 115.17 33.2148 115.17 31.6804C115.17 30.146 114.787 28.9952 114.02 28.228C113.252 27.4401 112.361 27.0461 111.345 27.0461C110.287 27.0461 109.375 27.4401 108.608 28.228C107.861 28.9952 107.488 30.146 107.488 31.6804C107.488 33.2148 107.861 34.3759 108.608 35.1639C109.375 35.9311 110.277 36.3147 111.314 36.3147Z" fill="black"/>
<path id="Vector_8" d="M95.515 39.767C94.0221 39.767 92.6743 39.4249 91.4717 38.7406C90.2898 38.0564 89.3464 37.1129 88.6414 35.9103C87.9571 34.687 87.615 33.277 87.615 31.6804C87.615 30.0838 87.9675 28.6842 88.6725 27.4816C89.3775 26.2582 90.3209 25.3044 91.5028 24.6201C92.7054 23.9359 94.0532 23.5938 95.5461 23.5938C97.0183 23.5938 98.3453 23.9359 99.5272 24.6201C100.73 25.3044 101.673 26.2582 102.358 27.4816C103.063 28.6842 103.415 30.0838 103.415 31.6804C103.415 33.277 103.063 34.687 102.358 35.9103C101.673 37.1129 100.73 38.0564 99.5272 38.7406C98.3246 39.4249 96.9872 39.767 95.515 39.767ZM95.515 36.3147C96.5518 36.3147 97.4537 35.9311 98.2209 35.1639C98.9881 34.3759 99.3717 33.2148 99.3717 31.6804C99.3717 30.146 98.9881 28.9952 98.2209 28.228C97.4537 27.4401 96.5621 27.0461 95.5461 27.0461C94.4886 27.0461 93.5763 27.4401 92.8091 28.228C92.0626 28.9952 91.6894 30.146 91.6894 31.6804C91.6894 33.2148 92.0626 34.3759 92.8091 35.1639C93.5763 35.9311 94.4783 36.3147 95.515 36.3147Z" fill="black"/>
<path id="Vector_9" d="M80.0555 39.767C78.4797 39.767 77.0904 39.4249 75.8878 38.7406C74.6852 38.0564 73.7314 37.1026 73.0264 35.8792C72.3421 34.6559 72 33.2562 72 31.6804C72 30.1045 72.3421 28.7049 73.0264 27.4816C73.7314 26.2582 74.6852 25.3044 75.8878 24.6201C77.0904 23.9359 78.4797 23.5938 80.0555 23.5938C82.0254 23.5938 83.6842 24.1121 85.0319 25.1489C86.3797 26.1649 87.2402 27.5749 87.6134 29.3788H83.4146C83.2072 28.6323 82.7925 28.0518 82.1705 27.6371C81.5692 27.2016 80.8538 26.9839 80.0244 26.9839C78.9255 26.9839 77.9924 27.3986 77.2252 28.228C76.458 29.0574 76.0744 30.2082 76.0744 31.6804C76.0744 33.1526 76.458 34.3034 77.2252 35.1328C77.9924 35.9622 78.9255 36.3769 80.0244 36.3769C80.8538 36.3769 81.5692 36.1695 82.1705 35.7548C82.7925 35.3401 83.2072 34.7492 83.4146 33.982H87.6134C87.2402 35.7237 86.3797 37.1233 85.0319 38.1808C83.6842 39.2383 82.0254 39.767 80.0555 39.767Z" fill="black"/>
</g>
</g>
</svg>
