<svg width="16" height="16" viewBox="0 0 16 16" fill="none" xmlns="http://www.w3.org/2000/svg">
<g id="System">
<path id="Vector" d="M8.00008 5.99992V7.33325M8.00008 9.99992V10.0066M3.33338 12.6666H12.6667C12.8843 12.6651 13.0981 12.6103 13.2896 12.5072C13.4812 12.404 13.6445 12.2556 13.7655 12.0748C13.8865 11.894 13.9614 11.6863 13.9837 11.4699C14.006 11.2535 13.975 11.0349 13.8934 10.8333L9.16005 2.6666C9.04474 2.45819 8.87572 2.28448 8.67055 2.16352C8.46538 2.04256 8.23155 1.97876 7.99338 1.97876C7.75521 1.97876 7.52138 2.04256 7.31621 2.16352C7.11104 2.28448 6.94202 2.45819 6.82671 2.6666L2.09338 10.8333C2.01334 11.0303 1.9816 11.2437 2.00081 11.4555C2.02002 11.6673 2.08963 11.8714 2.20381 12.0509C2.318 12.2303 2.47345 12.3798 2.6572 12.4869C2.84094 12.594 3.04764 12.6556 3.26005 12.6666" stroke="#451C03" stroke-linecap="round" stroke-linejoin="round"/>
</g>
</svg>
