<svg width="16" height="16" viewBox="0 0 16 16" fill="none" xmlns="http://www.w3.org/2000/svg">
<g id="System">
<path id="Vector" d="M7.99984 5.99967V7.33301M7.99984 9.99967V10.0063M3.33313 12.6664H12.6665C12.884 12.6648 13.0979 12.6101 13.2894 12.5069C13.4809 12.4038 13.6443 12.2553 13.7653 12.0745C13.8862 11.8937 13.9611 11.686 13.9834 11.4696C14.0057 11.2532 13.9747 11.0347 13.8931 10.833L9.1598 2.66635C9.0445 2.45795 8.87547 2.28424 8.6703 2.16328C8.46513 2.04231 8.23131 1.97852 7.99313 1.97852C7.75496 1.97852 7.52114 2.04231 7.31597 2.16328C7.1108 2.28424 6.94177 2.45795 6.82647 2.66635L2.09313 10.833C2.0131 11.0301 1.98136 11.2434 2.00057 11.4552C2.01978 11.667 2.08938 11.8712 2.20357 12.0506C2.31775 12.2301 2.47321 12.3796 2.65695 12.4867C2.8407 12.5938 3.0474 12.6554 3.2598 12.6664" stroke="#000005" stroke-linecap="round" stroke-linejoin="round"/>
</g>
</svg>
