<svg width="24" height="24" viewBox="0 0 24 24" fill="none" xmlns="http://www.w3.org/2000/svg">
<g id="Weather">
<rect x="0.25" y="0.25" width="23.5" height="23.5" rx="1.75" stroke="#451C03" stroke-width="0.5"/>
<path id="Vector" d="M8 11.5H12L12 13.5C12.7626 13.9403 13.3586 14.6199 13.6955 15.4334C14.0325 16.2469 14.0916 17.1488 13.8637 17.9994C13.6358 18.8499 13.1336 19.6015 12.435 20.1375C11.7365 20.6736 10.8805 20.9641 10 20.9641C9.11946 20.9641 8.26353 20.6736 7.56496 20.1375C6.86638 19.6015 6.3642 18.8499 6.1363 17.9994C5.9084 17.1488 5.96752 16.2469 6.30448 15.4334C6.64145 14.6199 7.23743 13.9403 8 13.5V5C8 4.46957 8.21072 3.96086 8.58579 3.58579C8.96086 3.21071 9.46957 3 10 3C10.5304 3 11.0391 3.21071 11.4142 3.58579C11.7893 3.96086 12 4.46957 12 5V6" stroke="#451C03" stroke-width="1.5" stroke-linecap="round" stroke-linejoin="round"/>
<path id="Vector_2" d="M16.5355 12.0707V4.99962M16.5355 4.99962L13.7071 7.82805M16.5355 4.99962L19.364 7.82805" stroke="#451C03" stroke-width="1.35" stroke-linecap="round" stroke-linejoin="round"/>
</g>
</svg>
