<svg width="26" height="26" viewBox="0 0 26 26" fill="none" xmlns="http://www.w3.org/2000/svg">
<g id="trash">
<path id="Vector" d="M4.33325 7.58333H21.6666M10.8333 11.9167V18.4167M15.1666 11.9167V18.4167M5.41659 7.58333L6.49992 20.5833C6.49992 21.158 6.72819 21.7091 7.13452 22.1154C7.54085 22.5217 8.09195 22.75 8.66658 22.75H17.3333C17.9079 22.75 18.459 22.5217 18.8653 22.1154C19.2716 21.7091 19.4999 21.158 19.4999 20.5833L20.5833 7.58333M9.74992 7.58333V4.33333C9.74992 4.04602 9.86406 3.77047 10.0672 3.5673C10.2704 3.36414 10.5459 3.25 10.8333 3.25H15.1666C15.4539 3.25 15.7295 3.36414 15.9326 3.5673C16.1358 3.77047 16.2499 4.04602 16.2499 4.33333V7.58333" stroke="#FA5252" stroke-linecap="round" stroke-linejoin="round"/>
</g>
</svg>
