<svg width="16" height="16" viewBox="0 0 16 16" fill="none" xmlns="http://www.w3.org/2000/svg">
<g id="System">
<path id="Vector" d="M8.93998 7.06L10.6666 5.33333M4.66667 8C4.66667 7.11595 5.01786 6.2681 5.64298 5.64298C6.2681 5.01786 7.11595 4.66667 8 4.66667M14 8C14 11.3137 11.3137 14 8 14C4.68629 14 2 11.3137 2 8C2 4.68629 4.68629 2 8 2C11.3137 2 14 4.68629 14 8ZM8.66667 8C8.66667 8.36819 8.36819 8.66667 8 8.66667C7.63181 8.66667 7.33333 8.36819 7.33333 8C7.33333 7.63181 7.63181 7.33333 8 7.33333C8.36819 7.33333 8.66667 7.63181 8.66667 8Z" stroke="#000005" stroke-linecap="round" stroke-linejoin="round"/>
</g>
</svg>
