<svg width="16" height="16" viewBox="0 0 16 16" fill="none" xmlns="http://www.w3.org/2000/svg">
<g id="System">
<path id="Vector" d="M8.96668 7.70041L10.3333 6.33374M9.33333 8.66707C9.33333 9.40345 8.73638 10.0004 8 10.0004C7.26362 10.0004 6.66667 9.40345 6.66667 8.66707C6.66667 7.93069 7.26362 7.33374 8 7.33374C8.73638 7.33374 9.33333 7.93069 9.33333 8.66707ZM4.26667 13.3338C3.2921 12.5592 2.58261 11.5006 2.23652 10.3047C1.89043 9.1089 1.92488 7.83502 2.3351 6.65963C2.74531 5.48425 3.51098 4.46557 4.52599 3.74476C5.541 3.02395 6.75509 2.63672 8 2.63672C9.24491 2.63672 10.459 3.02395 11.474 3.74476C12.489 4.46557 13.2547 5.48425 13.6649 6.65963C14.0751 7.83502 14.1096 9.1089 13.7635 10.3047C13.4174 11.5006 12.7079 12.5592 11.7333 13.3338H4.26667Z" stroke="#000005" stroke-linecap="round" stroke-linejoin="round"/>
</g>
</svg>
