<svg width="16" height="16" viewBox="0 0 16 16" fill="none" xmlns="http://www.w3.org/2000/svg">
<g id="Buildings">
<g id="Vector">
<path d="M2 4.66667V5.33333C2 5.86377 2.21071 6.37247 2.58579 6.74755C2.96086 7.12262 3.46957 7.33333 4 7.33333C4.53043 7.33333 5.03914 7.12262 5.41421 6.74755C5.78929 6.37247 6 5.86377 6 5.33333V4.66667M6 5.33333C6 5.86377 6.21071 6.37247 6.58579 6.74755C6.96086 7.12262 7.46957 7.33333 8 7.33333C8.53043 7.33333 9.03914 7.12262 9.41421 6.74755C9.78929 6.37247 10 5.86377 10 5.33333V4.66667M10 5.33333C10 5.86377 10.2107 6.37247 10.5858 6.74755C10.9609 7.12262 11.4696 7.33333 12 7.33333C12.5304 7.33333 13.0391 7.12262 13.4142 6.74755C13.7893 6.37247 14 5.86377 14 5.33333V4.66667H2L3.33333 2H12.6667L14 4.66667" fill="#FCCFD9"/>
<path d="M13.9381 13.1044C14.2645 12.7955 14.4868 12.4019 14.5769 11.9734C14.667 11.5449 14.6208 11.1007 14.4442 10.6971C14.2676 10.2934 13.9686 9.9484 13.5849 9.70565C13.2011 9.4629 12.75 9.33333 12.2884 9.33333C11.8269 9.33333 11.3758 9.4629 10.992 9.70565C10.6083 9.9484 10.3092 10.2934 10.1327 10.6971C9.95608 11.1007 9.90991 11.5449 10 11.9734C10.0901 12.4019 10.3124 12.7955 10.6388 13.1044L12.2884 14.6667L13.9381 13.1044Z" fill="#FCCFD9"/>
<path d="M2 14H8.66667M2 4.66667V5.33333C2 5.86377 2.21071 6.37247 2.58579 6.74755C2.96086 7.12262 3.46957 7.33333 4 7.33333C4.53043 7.33333 5.03914 7.12262 5.41421 6.74755C5.78929 6.37247 6 5.86377 6 5.33333M2 4.66667H14M2 4.66667L3.33333 2H12.6667L14 4.66667M6 5.33333V4.66667M6 5.33333C6 5.86377 6.21071 6.37247 6.58579 6.74755C6.96086 7.12262 7.46957 7.33333 8 7.33333C8.53043 7.33333 9.03914 7.12262 9.41421 6.74755C9.78929 6.37247 10 5.86377 10 5.33333M10 5.33333V4.66667M10 5.33333C10 5.86377 10.2107 6.37247 10.5858 6.74755C10.9609 7.12262 11.4696 7.33333 12 7.33333C12.5304 7.33333 13.0391 7.12262 13.4142 6.74755C13.7893 6.37247 14 5.86377 14 5.33333V4.66667M3.33333 14V7.23332M6 14V11.3333C6 10.9797 6.14048 10.6406 6.39052 10.3905C6.64057 10.1405 6.97971 10 7.33333 10H8.66667M12.2884 11.5427V11.5482M13.9381 13.1044C14.2645 12.7955 14.4868 12.4019 14.5769 11.9734C14.667 11.5449 14.6208 11.1007 14.4442 10.6971C14.2676 10.2934 13.9686 9.9484 13.5849 9.70565C13.2011 9.4629 12.75 9.33333 12.2884 9.33333C11.8269 9.33333 11.3758 9.4629 10.992 9.70565C10.6083 9.9484 10.3092 10.2934 10.1327 10.6971C9.95608 11.1007 9.90991 11.5449 10 11.9734C10.0901 12.4019 10.3124 12.7955 10.6388 13.1044L12.2884 14.6667L13.9381 13.1044Z" stroke="#ED5079" stroke-linecap="round" stroke-linejoin="round"/>
</g>
</g>
</svg>
