<svg width="16" height="16" viewBox="0 0 16 16" fill="none" xmlns="http://www.w3.org/2000/svg">
<g id="E-commerce">
<path id="Vector" d="M1.33325 2H1.99992C2.35354 2 2.69268 2.14048 2.94273 2.39052C3.19278 2.64057 3.33325 2.97971 3.33325 3.33333V10C3.33325 10.3536 3.47373 10.6928 3.72378 10.9428C3.97382 11.1929 4.31296 11.3333 4.66659 11.3333H14.6666M7.99992 4H10.6666C11.7712 4 12.6666 4.89543 12.6666 6V7.33333C12.6666 8.4379 11.7712 9.33333 10.6666 9.33333H7.99992C6.89535 9.33333 5.99992 8.4379 5.99992 7.33333V6C5.99992 4.89543 6.89535 4 7.99992 4ZM7.33325 12.6667C7.33325 13.403 6.7363 14 5.99992 14C5.26354 14 4.66659 13.403 4.66659 12.6667C4.66659 11.9303 5.26354 11.3333 5.99992 11.3333C6.7363 11.3333 7.33325 11.9303 7.33325 12.6667ZM13.3333 12.6667C13.3333 13.403 12.7363 14 11.9999 14C11.2635 14 10.6666 13.403 10.6666 12.6667C10.6666 11.9303 11.2635 11.3333 11.9999 11.3333C12.7363 11.3333 13.3333 11.9303 13.3333 12.6667Z" stroke="#3E83FF" stroke-linecap="round" stroke-linejoin="round"/>
</g>
</svg>
