<svg width="16" height="16" viewBox="0 0 16 16" fill="none" xmlns="http://www.w3.org/2000/svg">
<g id="System">
<path id="Vector" d="M4.66673 6.66673H6.66673V4.66673L4.3334 2.3334C5.07982 1.97691 5.9184 1.8606 6.73366 2.00048C7.54893 2.14036 8.30078 2.52954 8.88568 3.11445C9.47059 3.69935 9.85977 4.4512 9.99965 5.26647C10.1395 6.08173 10.0232 6.92031 9.66673 7.66673L13.6667 11.6667C13.9319 11.9319 14.0809 12.2917 14.0809 12.6667C14.0809 13.0418 13.9319 13.4015 13.6667 13.6667C13.4015 13.9319 13.0418 14.0809 12.6667 14.0809C12.2917 14.0809 11.9319 13.9319 11.6667 13.6667L7.66673 9.66673C6.92031 10.0232 6.08173 10.1395 5.26647 9.99965C4.4512 9.85977 3.69935 9.47059 3.11445 8.88568C2.52954 8.30078 2.14036 7.54893 2.00048 6.73366C1.8606 5.9184 1.97691 5.07982 2.3334 4.3334L4.66673 6.66673Z" stroke="#3E83FF" stroke-linecap="round" stroke-linejoin="round"/>
</g>
</svg>
