<svg width="32" height="33" viewBox="0 0 32 33" fill="none" xmlns="http://www.w3.org/2000/svg">
<g id="E-commerce">
<rect x="0.25" y="0.75" width="31.5" height="31.5" rx="1.75" fill="#FFC7CD"/>
<rect x="0.25" y="0.75" width="31.5" height="31.5" rx="1.75" stroke="#49060D" stroke-width="0.5"/>
<path id="Vector" d="M16 25.1667H16.0144M11.9153 21.0818C12.9988 19.9986 14.4681 19.3901 16.0002 19.3901C17.5322 19.3901 19.0016 19.9986 20.0851 21.0818M7.8288 16.9954C9.36054 15.4594 11.2954 14.3878 13.4101 13.9043M19.4234 14.1282C21.2183 14.6887 22.8485 15.6806 24.1712 17.0171M3.74373 12.9106C5.22203 11.4292 6.95639 10.2278 8.86284 9.36445M13.3421 8.03556C16.0361 7.61783 18.7907 7.84145 21.382 8.68825C23.9734 9.53505 26.3285 10.9812 28.256 12.9091M3 3.5L29 29.5" stroke="#49060D" stroke-width="2" stroke-linecap="round" stroke-linejoin="round"/>
</g>
</svg>
