<svg width="32" height="33" viewBox="0 0 32 33" fill="none" xmlns="http://www.w3.org/2000/svg">
<g id="E-commerce">
<rect x="0.25" y="0.75" width="31.5" height="31.5" rx="1.75" fill="#C0F2C8"/>
<rect x="0.25" y="0.75" width="31.5" height="31.5" rx="1.75" stroke="#1F762E" stroke-width="0.5"/>
<path id="Vector" d="M15.9772 26.5H15.9925M11.6522 21.7868C12.7995 20.537 14.3552 19.8349 15.9774 19.8349C17.5996 19.8349 19.1554 20.537 20.3026 21.7868M7.32537 17.0719C8.46153 15.8337 9.81037 14.8515 11.2949 14.1814C12.7794 13.5114 14.3704 13.1665 15.9772 13.1665C17.5841 13.1665 19.1751 13.5114 20.6596 14.1814C22.1441 14.8515 23.493 15.8337 24.6291 17.0719M3 12.3586C10.1668 4.54712 21.7873 4.54712 29 12.3586" stroke="#1F762E" stroke-width="2" stroke-linecap="round" stroke-linejoin="round"/>
</g>
</svg>
