<svg width="26" height="26" viewBox="0 0 26 26" fill="none" xmlns="http://www.w3.org/2000/svg">
<g id="logout">
<path id="Vector" d="M15.1667 8.66668V6.50001C15.1667 5.92537 14.9384 5.37427 14.5321 4.96795C14.1257 4.56162 13.5746 4.33334 13 4.33334H5.41667C4.84203 4.33334 4.29093 4.56162 3.8846 4.96795C3.47827 5.37427 3.25 5.92537 3.25 6.50001V19.5C3.25 20.0746 3.47827 20.6257 3.8846 21.0321C4.29093 21.4384 4.84203 21.6667 5.41667 21.6667H13C13.5746 21.6667 14.1257 21.4384 14.5321 21.0321C14.9384 20.6257 15.1667 20.0746 15.1667 19.5V17.3333M7.58333 13H22.75M22.75 13L19.5 9.75001M22.75 13L19.5 16.25" stroke="#F93448" stroke-linecap="round" stroke-linejoin="round"/>
</g>
</svg>
