<svg width="26" height="26" viewBox="0 0 26 26" fill="none" xmlns="http://www.w3.org/2000/svg">
<g id="coin">
<path id="Vector" d="M16.0333 9.75004C15.8371 9.40961 15.552 9.12897 15.2085 8.93814C14.865 8.74731 14.4761 8.65348 14.0833 8.6667H11.9167C11.342 8.6667 10.7909 8.89498 10.3846 9.30131C9.97827 9.70764 9.75 10.2587 9.75 10.8334C9.75 11.408 9.97827 11.9591 10.3846 12.3654C10.7909 12.7718 11.342 13 11.9167 13H14.0833C14.658 13 15.2091 13.2283 15.6154 13.6346C16.0217 14.041 16.25 14.5921 16.25 15.1667C16.25 15.7413 16.0217 16.2924 15.6154 16.6988C15.2091 17.1051 14.658 17.3334 14.0833 17.3334H11.9167C11.5239 17.3466 11.135 17.2528 10.7915 17.0619C10.448 16.8711 10.1629 16.5905 9.96667 16.25M13 7.58333V18.4167M22.75 13C22.75 18.3848 18.3848 22.75 13 22.75C7.61522 22.75 3.25 18.3848 3.25 13C3.25 7.61522 7.61522 3.25 13 3.25C18.3848 3.25 22.75 7.61522 22.75 13Z" stroke="#313A49" stroke-linecap="round" stroke-linejoin="round"/>
</g>
</svg>
