<svg width="19" height="24" viewBox="0 0 19 24" fill="none" xmlns="http://www.w3.org/2000/svg">
<path d="M18.5 10.3325C18.5 15.209 14.4784 19.1763 9.5 19.1763C4.52159 19.1763 0.5 15.209 0.5 10.3325C0.5 5.45604 4.52159 1.48877 9.5 1.48877C14.4784 1.48877 18.5 5.45604 18.5 10.3325Z" fill="#F1F3F5" stroke="#E03131"/>
<path d="M10.1188 22.5196C9.73231 23.178 8.78044 23.178 8.39398 22.5196L6.34335 19.0263C5.95203 18.3596 6.43274 17.52 7.20575 17.52H11.307C12.08 17.52 12.5607 18.3596 12.1694 19.0263L10.1188 22.5196Z" fill="#E03131"/>
<path d="M10.1188 22.5196C9.73231 23.178 8.78044 23.178 8.39398 22.5196L6.34335 19.0263C5.95203 18.3596 6.43274 17.52 7.20575 17.52H11.307C12.08 17.52 12.5607 18.3596 12.1694 19.0263L10.1188 22.5196Z" stroke="#E03131"/>
<path d="M7.30768 9.79346V7.63721C7.30768 7.06533 7.53866 6.51688 7.94979 6.11251C8.36093 5.70813 8.91855 5.48096 9.49999 5.48096C10.0814 5.48096 10.639 5.70813 11.0502 6.11251C11.4613 6.51688 11.6923 7.06533 11.6923 7.63721V9.79346M6.75961 9.79346H12.2404C12.8458 9.79346 13.3365 10.2762 13.3365 10.8716V14.106C13.3365 14.7014 12.8458 15.1841 12.2404 15.1841H6.75961C6.15422 15.1841 5.66345 14.7014 5.66345 14.106V10.8716C5.66345 10.2762 6.15422 9.79346 6.75961 9.79346ZM10.0481 12.4888C10.0481 12.7865 9.80269 13.0278 9.49999 13.0278C9.1973 13.0278 8.95191 12.7865 8.95191 12.4888C8.95191 12.1911 9.1973 11.9497 9.49999 11.9497C9.80269 11.9497 10.0481 12.1911 10.0481 12.4888Z" stroke="#E03131" stroke-linecap="round" stroke-linejoin="round"/>
<path d="M7.30768 9.79346V7.63721C7.30768 7.06533 7.53866 6.51688 7.94979 6.11251C8.36093 5.70813 8.91855 5.48096 9.49999 5.48096C10.0814 5.48096 10.639 5.70813 11.0502 6.11251C11.4613 6.51688 11.6923 7.06533 11.6923 7.63721V9.79346M6.75961 9.79346H12.2404C12.8458 9.79346 13.3365 10.2762 13.3365 10.8716V14.106C13.3365 14.7014 12.8458 15.1841 12.2404 15.1841H6.75961C6.15422 15.1841 5.66345 14.7014 5.66345 14.106V10.8716C5.66345 10.2762 6.15422 9.79346 6.75961 9.79346ZM10.0481 12.4888C10.0481 12.7865 9.80269 13.0278 9.49999 13.0278C9.1973 13.0278 8.95191 12.7865 8.95191 12.4888C8.95191 12.1911 9.1973 11.9497 9.49999 11.9497C9.80269 11.9497 10.0481 12.1911 10.0481 12.4888Z" stroke="#E03131" stroke-linecap="round" stroke-linejoin="round"/>
</svg>
