<svg width="19" height="24" viewBox="0 0 19 24" fill="none" xmlns="http://www.w3.org/2000/svg">
<path d="M9.68758 22.2665C9.49435 22.5957 9.01841 22.5957 8.82518 22.2665L6.77455 18.7731C6.57889 18.4398 6.81925 18.02 7.20575 18.02H11.307C11.6935 18.02 11.9339 18.4398 11.7382 18.7731L9.68758 22.2665Z" fill="#2F9E44" stroke="#2F9E44"/>
<path d="M18.5 10.3325C18.5 15.209 14.4784 19.1763 9.5 19.1763C4.52159 19.1763 0.5 15.209 0.5 10.3325C0.5 5.45604 4.52159 1.48877 9.5 1.48877C14.4784 1.48877 18.5 5.45604 18.5 10.3325Z" fill="#F1F3F5" stroke="#2F9E44"/>
<path d="M7.30768 9.79346V7.09814C7.30768 6.52627 7.53866 5.97782 7.94979 5.57345C8.36093 5.16907 8.91855 4.94189 9.49999 4.94189C10.0814 4.94189 10.639 5.16907 11.0502 5.57345C11.4613 5.97782 11.6923 6.52627 11.6923 7.09814M6.75961 9.79346H12.2404C12.8458 9.79346 13.3365 10.2762 13.3365 10.8716V14.106C13.3365 14.7014 12.8458 15.1841 12.2404 15.1841H6.75961C6.15422 15.1841 5.66345 14.7014 5.66345 14.106V10.8716C5.66345 10.2762 6.15422 9.79346 6.75961 9.79346ZM10.0481 12.4888C10.0481 12.7865 9.80269 13.0278 9.49999 13.0278C9.1973 13.0278 8.95191 12.7865 8.95191 12.4888C8.95191 12.1911 9.1973 11.9497 9.49999 11.9497C9.80269 11.9497 10.0481 12.1911 10.0481 12.4888Z" stroke="#2F9E44" stroke-linecap="round" stroke-linejoin="round"/>
</svg>
