<?xml version="1.0" encoding="UTF-8"?>
<svg id="Layer_2" data-name="Layer 2" xmlns="http://www.w3.org/2000/svg" viewBox="0 0 808.31 247.26">
  <defs>
    <style>
      .cls-1 {
        fill: #231f20;
      }

      .cls-1, .cls-2 {
        stroke: #231f20;
        stroke-miterlimit: 10;
      }

      .cls-2 {
        fill: none;
        stroke-width: 29px;
      }
    </style>
  </defs>
  <g>
    <path class="cls-1" d="m79.46,194.8L122.95,59.8c.79-2.32,2.97-3.89,5.42-3.89h22.44c3.93,0,6.69,3.88,5.4,7.6l-63.06,178.23c-1.09,3.02-3.95,5.03-7.16,5.03h-14.95c-3.22,0-6.09-2.03-7.17-5.06L.82,63.51c-1.29-3.72,1.47-7.6,5.4-7.6h22.45c2.46,0,4.65,1.57,5.43,3.91l43.92,135.22"/>
    <path class="cls-1" d="m522.68,165.42c0,53.3-25.37,81.19-73.2,81.19s-75.6-27.01-75.6-78.56V61.89c0-2.78,2.28-5.03,5.09-5.03h22.16c2.81,0,5.09,2.25,5.09,5.03v105.45c0,35.19,14.64,46.28,43.11,46.28s41-10.49,41-44.48V61.89c0-2.78,2.28-5.03,5.09-5.03h22.16c2.81,0,5.09,2.25,5.09,5.03v103.53Z"/>
    <path class="cls-1" d="m640.86,245.83h-90.15c-2.8,0-5.06-2.27-5.06-5.06V61.92c0-2.85,2.35-5.14,5.2-5.06l25.45.7c2.74.08,4.93,2.32,4.93,5.06v145.8c0,2.83,2.31,5.11,5.14,5.06l54.41-.83c2.83-.04,5.14,2.24,5.14,5.06v23.05c0,2.8-2.27,5.06-5.06,5.06Z"/>
    <path class="cls-1" d="m801.13,87.52h-38.39c-3.69,0-6.68,2.99-6.68,6.68v145.14c0,3.69-2.99,6.68-6.68,6.68h-22.22c-3.69,0-6.68-2.99-6.68-6.68V94.2c0-3.69-2.99-6.68-6.68-6.68h-38.39c-3.69,0-6.68-2.99-6.68-6.68v-18.98c0-3.69,2.99-6.68,6.68-6.68h125.73c3.69,0,6.68,2.99,6.68,6.68v18.98c0,3.69-2.99,6.68-6.68,6.68Z"/>
  </g>
  <path class="cls-1" d="m285.97,189.22c-.02-.1-.14-.69-.22-1.49-.07-.64-.08-1.16-.09-1.51l-.77-33.06c0-2.81-.03-4.35.85-5.49.57-.73.9-1.14,1.13-1.35.35-.31.63-.51.63-.89,0-.4-.37-.73-.83-.73l-11.86-.15h-10.41c-7.34-.16-13.7,2.14-16.28,6.73-1.26,2.24-1.53,4.86-1.68,6.36-.56,5.49,1.01,9.92,2.07,12.29-1.12,2.25-3.06,6.96-2.33,12.77,0,0,.53,5.21,3,8.15,3.13,3.72,6.06,5.61,13.28,5.61h20.41c.46,0,.69-.25.93-.42l.38-.27c.13-.09.54-.49.8-.93.05-.11.68-1.78.7-1.87.14-.68.42-2.99.27-3.75Z"/>
  <path class="cls-2" d="m336.86,103.93v101.98c0,13.86-10.76,25.09-24.01,25.09h-94.55c-13.28,0-24.04-11.23-24.04-25.09v-101.98c0-9.25,4.83-17.35,11.99-21.67,3.53-2.17,7.67-3.39,12.05-3.39h94.55c2.68,0,5.27.46,7.67,1.32,9.5,3.33,16.34,12.71,16.34,23.74Z"/>
  <path class="cls-2" d="m205.84,55.41c-.32-6.32,0-17.81,0-17.81,0-1.54.16-9.73,7.18-16.35,4.44-4.18,10.56-6.76,17.32-6.76h67.59c13.56,0,24.54,10.32,24.54,23.1v40.57"/>
</svg>